<svg width="79" height="79" viewBox="0 0 79 79" fill="none" xmlns="http://www.w3.org/2000/svg">
<path d="M12.193 58.3301C12.0212 58.1549 12.193 58.3301 12.193 58.3301C12.0212 58.1549 11.8495 57.9797 11.8495 57.8046C11.6778 57.4542 11.506 57.2791 11.506 57.2791C11.506 56.7536 11.6777 56.2281 11.6777 55.7026C12.193 55.7026 13.0517 55.5274 13.3951 54.4764C13.5669 53.9509 13.5669 53.2503 13.5669 52.5496C13.5669 52.1993 13.5669 51.8489 13.3951 51.6738C13.3951 51.3234 13.3951 51.1483 13.3951 50.9731C12.8799 51.3234 10.9908 52.7248 10.6473 53.6006C10.4756 54.1261 10.4756 54.4764 10.6473 54.8268C10.819 55.1771 11.1625 55.3523 11.3343 55.5274C11.1625 55.7026 11.1625 56.0529 10.9908 56.4032C10.9908 56.4032 10.819 56.2281 10.6473 55.8777C10.4756 55.5274 10.3039 55.1771 10.1321 54.8268C9.96037 54.4764 9.78863 54.1261 9.61689 53.7758C9.61689 53.6006 9.44514 53.4254 9.44514 53.4254V53.2503L8.92992 52.0241C8.92992 51.6738 9.2734 50.9731 9.44514 50.4476C9.96036 50.4476 10.8191 50.4476 11.3343 49.5718C11.506 49.2215 11.6777 48.5208 11.6777 47.8201C11.6777 47.4698 11.6777 47.1195 11.6777 46.7692C11.6777 46.4188 11.6777 46.2437 11.6777 46.0685C11.1625 46.2437 9.10166 47.2946 8.58645 48.1705C8.41471 48.3456 8.41472 48.5208 8.41472 48.696C8.24299 49.3966 8.75818 49.9221 8.92992 50.0973C8.75818 50.2724 8.58646 50.6228 8.41472 50.798C8.41472 50.798 8.41471 50.6228 8.24298 50.4476C8.24298 50.2725 8.07123 50.0973 8.07123 49.747C7.89949 49.2215 7.72775 48.696 7.72775 48.696C7.72775 48.696 7.72777 48.5208 7.55603 48.3456C7.55603 48.1705 7.38428 47.9953 7.38428 47.9953L7.04081 46.7692C7.21255 46.4188 7.55602 45.7182 7.72775 45.3678C8.07123 45.543 9.10166 45.543 9.78861 44.6672C10.1321 44.3168 10.3038 43.6162 10.4756 42.9155C10.6473 42.2148 10.8191 41.6894 10.8191 41.339C10.3038 41.5142 8.07124 42.2148 7.38428 42.9155C6.69733 43.7913 7.21254 44.6672 7.38428 45.0175C7.21254 45.1927 7.0408 45.3678 6.86906 45.7182C6.86906 45.7182 6.86908 45.543 6.69734 45.1927C6.69734 44.8423 6.52559 44.492 6.52559 43.9665C6.52559 43.6162 6.35384 43.0907 6.35384 42.7403C6.35384 42.39 6.35384 42.2148 6.35384 42.2148C6.35384 42.2148 6.35384 41.8645 6.35384 41.5142C6.35384 41.339 6.35384 41.1639 6.35384 41.1639C6.35384 40.9887 6.35384 40.9887 6.35384 40.9887C6.52558 40.6384 7.04079 40.1129 7.21253 39.7625C7.55601 39.9377 8.58646 40.1129 9.27342 39.4122C9.6169 39.0619 9.96037 38.5364 10.1321 37.8357C10.4756 37.1351 10.6473 36.6096 10.6473 36.2592C9.96035 36.2592 7.72776 36.6096 7.04081 37.3102C6.86907 37.4854 6.69734 37.6605 6.69734 37.8357C6.35386 38.5364 6.69732 39.0619 6.86906 39.4122C6.69732 39.5874 6.52559 39.7625 6.18212 39.9377C6.18212 39.9377 6.18212 39.7625 6.18212 39.5874C6.18212 39.4122 6.18212 39.0619 6.18212 38.8867C6.18212 38.3612 6.18212 37.8357 6.18212 37.8357V36.9599C6.18212 36.9599 6.18212 36.6096 6.18212 36.2592C6.18212 35.9089 6.18212 35.5586 6.18212 35.5586C6.35385 35.2082 6.86906 34.6827 7.21253 34.5076C7.55601 34.6827 8.41472 35.2082 9.27342 34.5076C9.6169 34.1572 10.1321 33.6317 10.4756 33.1063C10.8191 32.5808 11.1625 32.0553 11.1625 31.7049C10.4756 31.7049 8.24298 31.7049 7.38428 32.2304C6.86907 32.5808 6.69734 32.9311 6.69734 33.2814C6.69734 33.6317 6.69732 33.9821 6.86906 34.1572C6.69732 34.3324 6.35385 34.5076 6.18212 34.6827C6.18212 34.6827 6.18212 34.5076 6.18212 34.1572C6.18212 33.8069 6.35384 33.4566 6.35384 32.9311C6.35384 32.4056 6.52559 32.0553 6.52559 31.7049C6.52559 31.3546 6.69734 31.1794 6.69734 31.1794C6.69734 31.1794 6.69734 31.1794 6.69734 31.0043C6.69734 30.8291 6.69734 30.6539 6.69734 30.6539C6.69734 30.3036 6.86906 29.9533 6.86906 29.9533C7.21254 29.6029 7.72775 29.2526 8.07123 29.0774C8.4147 29.4278 9.10168 29.9533 10.1321 29.4278C10.3039 29.2526 10.6473 29.0774 10.8191 28.9023C10.9908 28.7271 11.3343 28.3768 11.506 28.2016C12.0212 27.6761 12.3647 27.1506 12.5364 26.9755C12.193 26.9755 11.506 26.8003 10.8191 26.6251C10.1321 26.6251 9.27341 26.6251 8.7582 26.8003C8.58646 26.9755 8.41471 26.9755 8.24298 27.1506C8.07124 27.3258 7.8995 27.6761 7.8995 28.0265C7.8995 28.3768 7.8995 28.552 7.8995 28.7271C7.72776 28.9023 7.38429 28.9023 7.04081 29.0774C7.04081 29.0774 7.21254 28.552 7.38428 28.0265C7.38428 27.8513 7.55603 27.501 7.55603 27.3258C7.55603 27.1506 7.72775 26.9755 7.72775 26.9755L8.07123 26.0996C8.07123 26.0996 8.07123 26.0996 8.07123 25.9245C8.07123 25.9245 8.07123 25.9245 8.07123 25.7493C8.07123 25.7493 8.07124 25.5741 8.24298 25.399C8.41471 25.0486 8.41472 24.8735 8.41472 24.8735C8.7582 24.5232 9.44514 24.348 9.78861 24.1728C10.1321 24.5232 10.8191 25.2238 11.8495 24.8735C12.7082 24.5232 14.0821 23.1218 14.5973 22.7715C14.0821 22.5963 11.8495 21.7205 10.8191 22.0708C10.3038 22.246 9.96035 22.5963 9.78861 22.9467C9.61687 23.297 9.61689 23.6473 9.61689 23.8225C9.44515 23.8225 9.10167 23.9977 8.7582 23.9977C8.7582 23.9977 8.92992 23.8225 8.92992 23.4722C9.10166 23.1218 9.2734 22.7715 9.44514 22.4212C9.61688 22.0708 9.78862 21.7205 9.96036 21.3702C10.1321 21.0198 10.1321 20.8447 10.1321 20.8447L10.8191 19.7937C11.1625 19.6185 11.8495 19.4434 12.3647 19.2682C12.5364 19.6185 13.2234 20.3192 14.2538 20.3192C14.769 20.3192 15.2843 19.9689 15.7995 19.6185C16.1429 19.4434 16.3147 19.2682 16.6582 19.093C16.8299 18.9179 17.1734 18.7427 17.1734 18.7427C16.6582 18.3924 14.5973 17.3414 13.5669 17.3414C13.3951 17.3414 13.2234 17.3414 13.0517 17.5165C12.3647 17.8669 12.193 18.5675 12.193 18.7427C12.0212 18.7427 11.6778 18.7427 11.3343 18.7427C11.3343 18.7427 11.3343 18.5675 11.506 18.3924C11.6777 18.2172 11.6778 18.042 11.8495 17.8669C12.193 17.5165 12.3647 16.991 12.3647 16.991C12.3647 16.991 12.5364 16.8159 12.5364 16.6407C12.7082 16.4655 12.7082 16.2904 12.7082 16.2904L13.0517 15.7649L13.5669 15.2394C13.9104 15.0642 14.5973 15.0642 15.1125 15.0642C15.2843 15.4145 15.7995 16.2904 16.8299 16.2904C17.3451 16.2904 18.0321 16.1152 18.5473 15.7649C19.2343 15.5897 19.7495 15.2394 19.9212 15.0642C19.406 14.7139 17.6886 13.3126 16.6582 13.3126C16.1429 13.3126 15.7995 13.4877 15.456 13.8381C15.2843 14.1884 15.1125 14.3636 15.1125 14.7139C14.9408 14.7139 14.5973 14.7139 14.2538 14.7139C14.2538 14.7139 14.4256 14.5387 14.5973 14.3636C14.769 14.1884 15.1125 13.8381 15.456 13.4877C15.6277 13.3126 15.7995 13.1374 15.9712 12.9622C16.143 12.7871 16.3147 12.6119 16.3147 12.6119C16.4864 12.4367 16.6582 12.2616 16.6582 12.2616C16.6582 12.2616 16.8299 12.0864 17.1734 11.7361C17.3451 11.5609 17.6886 11.3857 17.6886 11.3857C18.2038 11.3857 18.719 11.3857 19.2342 11.3857C19.2342 11.9112 19.5777 12.7871 20.6082 12.9622C20.7799 12.9622 21.1234 12.9622 21.4669 12.9622C21.8103 12.9622 22.1538 12.7871 22.3255 12.7871C22.669 12.7871 23.0125 12.6119 23.356 12.6119C23.6995 12.6119 23.8712 12.4367 24.0429 12.4367C23.6995 11.9112 21.9821 10.3348 21.1234 10.1596C20.9516 10.1596 20.7799 10.1596 20.4364 10.1596C20.2647 10.1596 20.093 10.1596 19.9212 10.3348C19.7495 10.3348 19.7495 10.5099 19.5777 10.6851C19.406 10.8602 19.2342 11.0354 19.2342 11.2106C19.0625 11.2106 18.719 11.0354 18.3755 11.0354C18.3755 11.0354 18.719 10.6851 19.2342 10.3348C19.5777 9.98443 20.0929 9.63409 20.0929 9.63409L20.7799 9.10861C20.7799 9.10861 20.7799 9.10859 20.9516 8.93343C20.9516 8.93343 21.1234 8.93343 21.1234 8.75827C21.4669 8.5831 21.6386 8.40794 21.6386 8.40794C21.9821 8.40794 22.669 8.5831 23.1842 8.5831C23.1842 9.1086 23.356 9.98443 24.3864 10.3348C24.9016 10.5099 25.5886 10.5099 26.2755 10.5099C26.619 10.5099 26.9625 10.5099 27.1342 10.3348C27.4777 10.3348 27.6494 10.3348 27.8212 10.3348C27.4777 9.80926 26.1038 7.88245 25.2451 7.53211C24.7299 7.35695 24.3864 7.35695 24.0429 7.53211C23.6995 7.70728 23.5277 8.05761 23.356 8.23278C23.1842 8.05761 22.8408 8.05761 22.4973 7.88244C22.4973 7.88244 22.669 7.70728 23.0125 7.53211C23.356 7.35695 23.6995 7.18178 24.0429 7.00661C24.2147 6.83145 26.1038 5.95562 27.4777 5.0798C27.8212 5.43013 28.5082 5.95563 29.3668 5.6053C30.2255 5.25497 31.5994 3.32814 31.9429 2.80264C31.4277 2.62748 29.0234 2.27715 28.1647 2.62748C26.9625 3.15298 27.1342 4.20397 27.1342 4.5543C26.4473 4.90463 25.7603 5.07979 25.4168 5.25496C25.0734 5.43013 23.356 5.95562 23.356 5.95562C23.356 5.60529 23.5277 5.25496 23.5277 5.0798C23.6994 5.0798 24.0429 5.0798 24.3864 4.90463C24.7299 4.72947 25.0734 4.37914 25.2451 3.85365C25.4168 3.32815 25.4168 2.45231 25.4168 1.75165C25.4168 1.05099 25.2451 0.175165 25.2451 0C25.0734 0.175165 24.9016 0.350336 24.5582 0.525501C24.2147 0.700667 24.0429 1.051 23.6995 1.22617C23.0125 1.75166 22.4973 2.45232 22.3255 2.97782C21.9821 4.02881 22.669 4.72947 23.0125 4.90463C23.0125 5.0798 22.8408 5.43013 22.669 5.6053C22.4973 5.95563 22.4973 6.13078 22.3255 6.30595C22.3255 6.30595 22.1538 6.30596 21.9821 6.48113C21.8103 6.65629 21.4669 6.83145 21.2951 7.00661C20.7799 7.35694 20.2647 7.70728 20.2647 7.70728C20.2647 7.70728 20.2647 7.70727 20.0929 7.88244C19.9212 7.88244 19.9212 8.05761 19.7495 8.23278C19.406 8.40794 19.2342 8.5831 19.2342 8.5831L18.8908 8.75827C18.8908 8.5831 18.8908 8.40794 18.8908 8.23278C18.8908 8.05761 18.8908 8.05761 18.8908 7.88244C19.0625 7.88244 19.406 7.70728 19.7495 7.53211C20.0929 7.35695 20.4364 7.00662 20.4364 6.48113C20.6082 5.43013 19.9212 3.15298 19.7495 2.62748C19.5777 2.80265 19.406 2.97782 19.2342 3.15298C19.0625 3.50331 18.719 3.67848 18.3755 4.02881C17.8603 4.72947 17.3451 5.43013 17.3451 5.95562V6.13079C17.3451 7.18178 18.0321 7.53211 18.3755 7.70728C18.2038 8.23277 18.2038 8.93344 18.0321 9.28377C18.0321 9.28377 17.8603 9.45893 17.6886 9.63409C17.5169 9.80926 17.1734 10.1596 16.8299 10.3348C16.4864 10.5099 16.3147 10.8603 15.9712 11.0354C15.7995 11.2106 15.6277 11.3857 15.6277 11.3857C15.6277 11.3857 15.2843 11.7361 14.9408 11.9112C14.769 12.0864 14.5973 12.2616 14.5973 12.2616C14.4256 12.4367 14.4256 12.4367 14.4256 12.4367C14.4256 12.0864 14.2538 11.7361 14.2538 11.5609C14.4256 11.5609 14.769 11.3858 15.1125 11.0354C15.456 10.8603 15.6277 10.3348 15.6277 9.80926C15.6277 8.75826 14.5973 6.65628 14.4256 6.13079C14.2538 6.48112 13.7386 7.00661 13.3951 7.88244C13.0517 8.5831 12.7082 9.45894 12.7082 9.98443C12.7082 11.2106 13.5669 11.5609 14.0821 11.5609C14.0821 12.0864 14.0821 12.7871 13.9104 13.1374C13.9104 13.1374 13.7386 13.3126 13.5669 13.4877C13.3951 13.6629 13.2234 13.8381 13.0517 14.1884C12.8799 14.3636 12.7082 14.7139 12.5364 14.8891C12.3647 15.0642 12.3647 15.2394 12.3647 15.2394C12.3647 15.2394 12.193 15.5897 11.8495 15.7649C11.6778 15.94 11.6777 16.1152 11.506 16.1152C11.506 16.2904 11.3343 16.2904 11.3343 16.2904L11.1625 16.6407C11.1625 16.4655 10.9908 16.2904 10.9908 16.1152C10.9908 15.9401 10.9908 15.94 10.8191 15.7649C10.9908 15.5897 11.3343 15.4146 11.506 15.2394C11.6777 14.8891 11.8495 14.5387 11.8495 14.0132C11.6778 12.9622 10.4756 11.0354 10.1321 10.5099C9.96037 10.8603 9.6169 11.5609 9.27342 12.2616C8.92994 13.1374 8.75818 13.8381 8.92992 14.5387V14.7139C9.10166 15.7649 9.96037 15.94 10.4756 15.94C10.4756 16.4655 10.6473 17.1662 10.6473 17.5165C10.6473 17.5165 10.3038 18.2172 9.78861 18.9179C9.44514 19.6185 8.92992 20.3192 8.92992 20.3192C8.92992 20.3192 8.92994 20.4944 8.7582 20.4944C8.7582 20.6695 8.58646 20.8447 8.41472 21.0198C8.24299 21.3702 8.07123 21.7205 8.07123 21.7205C7.89949 21.3702 7.72775 21.195 7.72775 20.8447C7.89949 20.6695 8.24299 20.4943 8.41472 20.144C8.58646 19.7937 8.75819 19.4434 8.58645 18.7427C8.24297 17.6917 6.69733 16.1152 6.18212 15.5897C6.18212 15.7649 6.01038 16.1152 5.83864 16.2904C5.66691 16.6407 5.66688 16.991 5.49515 17.5165C5.32341 18.3924 5.32341 19.2682 5.49515 19.7937C5.83862 20.8447 6.86906 21.0198 7.21253 21.0198C7.38427 21.5453 7.55603 22.246 7.55603 22.5963C7.55603 22.5963 7.55602 22.7715 7.38428 22.9467C7.21254 23.1218 7.21255 23.4722 7.04081 23.8225C6.86907 24.348 6.52559 25.0486 6.52559 25.0486C6.52559 25.0486 6.52559 25.0486 6.52559 25.2238C6.52559 25.399 6.35384 25.5741 6.35384 25.7493C6.1821 26.0996 6.18212 26.45 6.18212 26.45L6.01037 26.8003C5.83863 26.6251 5.83863 26.45 5.66689 26.45C5.66689 26.2748 5.49515 26.2748 5.49515 26.0996C5.66688 25.9245 5.83863 25.7493 6.01037 25.2238C6.18211 24.8735 6.18211 24.348 6.01037 23.8225C5.49515 22.9467 3.77778 21.3702 3.26256 21.0198C3.09082 21.7205 2.74735 24.348 3.26256 25.2238C3.26256 25.2238 3.26255 25.399 3.43429 25.399C3.9495 26.2748 4.80821 26.2748 5.32342 26.0996C5.49516 26.45 5.83864 27.1506 5.83864 27.6761C5.83864 27.6761 5.83863 27.8513 5.66689 28.2016C5.66689 28.5519 5.49515 28.9023 5.49515 29.2526C5.32341 29.603 5.32342 29.9533 5.32342 30.3036C5.32342 30.6539 5.15167 30.8291 5.15167 30.8291C5.15167 30.8291 5.15169 31.1794 4.97995 31.7049C4.80821 32.0553 4.8082 32.5807 4.8082 32.5807C4.63646 32.4056 4.293 32.0553 4.12126 31.8801C4.293 31.7049 4.46473 31.3546 4.46473 31.0043C4.46473 30.6539 4.46473 30.1284 4.12126 29.6029C3.60604 28.7271 1.54517 27.6761 1.02995 27.3258C1.02995 27.6761 1.02995 28.552 1.02995 29.4278C1.20169 30.3036 1.37342 31.1794 1.7169 31.5298C2.40385 32.4056 3.26254 32.2304 3.77776 32.0553C4.12124 32.4056 4.46471 33.1062 4.63645 33.4566C4.63645 33.4566 4.63645 33.6318 4.63645 33.8069C4.63645 33.9821 4.63645 34.3324 4.63645 34.6827C4.63645 35.0331 4.63645 35.3834 4.63645 35.5586C4.63645 35.7337 4.63645 35.9089 4.63645 35.9089V37.3102V37.6605C4.46471 37.4854 4.29298 37.4854 4.29298 37.3102C4.12124 37.3102 4.12125 37.1351 3.94951 37.1351C4.12125 36.9599 4.12126 36.6096 4.12126 36.2592C4.12126 35.9089 3.94951 35.3834 3.60604 35.0331C2.91908 34.3324 0.686477 33.4566 0.171261 33.2814C0.171261 33.6317 0.342994 34.5076 0.514733 35.2082C0.686472 36.0841 1.02995 36.7847 1.37343 37.3102C1.37343 37.3102 1.37344 37.3102 1.54518 37.4854C2.40387 38.186 3.09081 37.8357 3.43429 37.6605C3.77776 38.0109 4.29299 38.5364 4.46473 38.8867C4.46473 38.8867 4.46473 39.0619 4.46473 39.4122C4.46473 39.7625 4.46473 40.1129 4.46473 40.4632C4.46473 40.8135 4.46471 41.1639 4.63645 41.5142C4.63645 41.8645 4.63645 42.0397 4.63645 42.0397C4.63645 42.0397 4.63646 42.5652 4.8082 42.9155C4.8082 43.2658 4.97995 43.7913 4.97995 43.7913C4.63647 43.6162 4.46473 43.441 4.12126 43.441C4.293 43.0907 4.46473 42.0397 3.60604 41.339C2.74734 40.6384 0.514728 40.288 -0.000488281 40.288C0.17125 40.6384 0.343005 41.339 0.686482 42.2148C1.02996 42.9155 1.54517 43.7913 1.88865 44.1417C2.74734 44.8423 3.60603 44.3168 3.94951 43.9665C4.29298 44.3168 4.8082 44.6672 5.15167 45.0175C5.15167 45.0175 5.32341 45.7182 5.49515 46.2437C5.49515 46.594 5.66689 46.9443 5.66689 47.1195C5.66689 47.2946 5.83864 47.4698 5.83864 47.4698C5.83864 47.4698 6.01037 47.8201 6.01037 48.1705C6.01037 48.3456 6.18212 48.5208 6.18212 48.696C6.18212 48.8711 6.18212 48.8711 6.18212 48.8711L6.35384 49.2215C6.1821 49.2215 6.01038 49.0463 5.83864 49.0463C5.66691 49.0463 5.66688 48.8711 5.49515 48.8711C5.49515 48.696 5.49515 48.3456 5.49515 47.9953C5.32341 47.645 5.15167 47.2946 4.63645 46.9443C3.77776 46.4188 1.37342 46.4188 0.858205 46.4188C1.02994 46.7691 1.37343 47.4698 1.88865 48.1705C2.40386 48.8711 2.91907 49.5718 3.43429 49.747H3.60604C4.46473 50.0973 5.15167 49.5718 5.49515 49.2215C5.83862 49.3966 6.52558 49.747 6.86906 50.0973C6.86906 50.0973 7.21254 50.798 7.38428 51.4986C7.55602 51.8489 7.72776 52.1993 7.8995 52.5496C8.07124 52.8999 8.07123 53.0751 8.07123 53.0751C8.07123 53.0751 8.07124 53.2503 8.24298 53.2503C8.24298 53.4254 8.41471 53.6006 8.58645 53.7758C8.75819 54.1261 8.92992 54.6516 8.92992 54.6516C8.58644 54.6516 8.24296 54.4764 8.07123 54.4764C8.07123 54.3013 8.07124 53.9509 7.8995 53.6006C7.72776 53.2503 7.38428 52.8999 6.86906 52.7248C6.35384 52.5496 5.49516 52.5496 4.8082 52.5496C4.12125 52.5496 3.26255 52.7248 3.09081 52.7248C3.26255 52.8999 3.26256 53.0751 3.60604 53.4254C3.77777 53.7758 4.12124 53.9509 4.29298 54.3013C4.8082 55.0019 5.49515 55.5274 6.01037 55.7026C7.0408 56.0529 7.72776 55.3523 7.8995 55.0019C8.07124 55.0019 8.41471 55.1771 8.58645 55.3522C8.92992 55.5274 9.10168 55.5274 9.27342 55.7026C9.27342 55.7026 9.2734 55.8777 9.44514 56.0529C9.61688 56.2281 9.78862 56.5784 9.96036 56.7536C10.3038 57.2791 10.6473 57.8046 10.6473 57.8046C10.6473 57.8046 10.6473 57.8046 10.8191 57.9797C10.8191 58.1549 10.9908 58.1549 11.1625 58.3301C11.3343 58.6804 11.506 58.8556 11.506 58.8556L12.193 58.3301Z" fill="#F5EFDB"/>
<path d="M66.291 59.9074C65.9476 60.2578 65.6041 60.7833 65.6041 60.7833C65.6041 60.4329 65.4324 60.0826 65.4324 59.9074C65.6041 59.9074 65.7758 59.7323 65.9476 59.5571C66.1193 59.3819 66.1193 59.3819 66.291 59.2068C66.291 59.0316 66.4628 58.8564 66.4628 58.6813C66.4628 58.5061 66.4628 58.3309 66.4628 57.9806C66.291 56.9296 64.5737 55.3531 64.2302 55.0028C64.2302 55.178 64.0584 55.3531 64.0584 55.7035C64.0584 56.0538 63.8867 56.4041 63.8867 56.7545C63.8867 57.1048 63.715 57.4551 63.715 57.6303C63.715 57.9806 63.715 58.1558 63.715 58.5061C63.8867 59.5571 64.7454 59.9074 65.2606 59.9074C65.2606 60.4329 65.2606 61.1336 65.2606 61.4839C65.2606 61.4839 65.0889 61.6591 64.9171 62.0094C64.7454 62.1846 64.4019 62.5349 64.4019 62.5349C64.4019 62.5349 64.2302 62.7101 64.0584 62.8852C63.8867 63.0604 63.8867 63.0604 63.715 63.2356C63.5432 63.4107 63.3715 63.5859 63.1997 63.7611C62.8563 64.1114 62.5128 64.4617 62.341 64.6369C62.1693 64.8121 61.9976 64.9872 61.9976 64.9872C61.9976 64.6369 61.9976 64.2866 61.9976 64.1114C62.1693 64.1114 62.5128 63.9362 62.8563 63.7611C63.1997 63.5859 63.3715 63.0604 63.3715 62.5349C63.3715 61.4839 61.9976 59.5571 61.6541 59.2068C61.4824 59.3819 61.3106 60.0826 60.9671 60.6081C60.6236 61.3087 60.4519 62.0094 60.4519 62.3597C60.4519 63.4107 61.3106 63.9362 61.6541 64.1114C61.6541 64.6369 61.4823 65.3376 61.4823 65.6879L60.4519 66.5637C60.4519 66.5637 60.2802 66.7389 60.1084 66.7389C59.9367 66.914 59.765 66.9141 59.765 66.9141C59.765 66.9141 59.4215 67.2644 58.9063 67.4395C58.7345 67.6147 58.391 67.7899 58.391 67.7899C58.2193 67.965 58.0476 67.965 58.0476 67.965C58.0476 67.6147 58.0476 67.2644 58.0476 67.0892C58.391 67.0892 59.078 66.914 59.2497 66.2134C59.2497 66.0382 59.4215 65.863 59.4215 65.6879C59.5932 64.6369 58.3911 62.5349 58.2193 62.0094C58.2193 62.1846 58.0476 62.3598 57.8758 62.5349C57.7041 62.7101 57.5324 63.0604 57.3606 63.4107C57.0171 63.9362 56.6737 64.6369 56.6737 64.9872C56.5019 66.0382 57.1889 66.5637 57.7041 66.9141C57.5324 67.2644 57.3606 67.965 57.1889 68.4905L56.1584 69.1912C56.1584 69.1912 55.9867 69.3664 55.6432 69.3664C55.2998 69.5415 54.9563 69.7167 54.6128 69.8919C54.2693 70.067 53.7541 70.2422 53.5823 70.4174C53.2389 70.5925 53.0672 70.5925 53.0672 70.5925C53.0672 70.2422 53.2389 69.8919 53.2389 69.7167C53.4106 69.7167 53.7541 69.7167 54.0976 69.5415C54.441 69.3664 54.7845 69.016 54.9563 68.4905C55.2997 67.4395 54.4411 65.3376 54.2693 64.6369C54.0976 64.8121 54.0976 64.9872 53.9258 65.1624C53.7541 65.3376 53.5824 65.5127 53.2389 65.863C52.8954 66.3885 52.3802 66.914 52.2085 67.4395C51.865 68.4905 52.5519 69.1912 52.8954 69.5415C52.7237 69.8919 52.3802 70.5925 52.2085 70.9428C52.2085 70.9428 51.865 71.118 51.6932 71.118C51.5215 71.118 51.3498 71.2932 51.3498 71.2932C51.178 71.2932 51.178 71.2932 51.178 71.2932L50.3193 71.6435C50.3193 71.6435 50.1476 71.6435 49.9758 71.8187C49.8041 71.8187 49.4606 71.9938 49.2889 71.9938C48.7737 72.169 48.2585 72.3442 48.2585 72.3442C48.4302 71.9938 48.4302 71.8187 48.6019 71.4683C48.7737 71.4683 48.9454 71.4683 49.2889 71.4683C49.6324 71.4683 49.8041 71.2932 50.1476 71.118C50.3193 70.9428 50.3193 70.7677 50.4911 70.5925C50.6628 70.067 50.6628 69.3664 50.6628 68.4905C50.6628 67.7899 50.4911 66.914 50.3193 66.7389C50.1476 66.914 49.6324 67.2644 49.1171 67.7899C48.9454 67.965 48.6019 68.3154 48.4302 68.4905C48.2584 68.6657 48.0867 69.016 47.915 69.1912C47.3998 70.2422 47.915 70.9429 48.2585 71.2932C48.0867 71.6435 47.5715 72.169 47.3998 72.5193C47.3998 72.5193 47.0563 72.5193 46.7128 72.6945H46.5411C44.3085 72.8697 40.7019 73.22 40.7019 73.22C40.7019 73.22 36.5802 73.0448 34.5193 72.8697C34.5193 72.8697 34.5193 72.8697 34.3476 72.8697C34.1758 72.8697 34.0041 72.8697 34.0041 72.8697C33.6606 72.8697 33.3172 72.6945 33.3172 72.6945C32.9737 72.3442 32.6302 71.8187 32.4585 71.4683C32.802 71.118 33.3172 70.4173 32.8019 69.3664C32.6302 69.1912 32.6302 68.8409 32.2867 68.6657C32.115 68.4905 31.7715 68.1402 31.5998 67.965C31.0846 67.4395 30.5693 67.0892 30.3976 66.9141C30.3976 67.2644 30.2259 67.965 30.0541 68.6657C30.0541 69.3664 30.0541 70.2422 30.2259 70.7677C30.3976 70.9428 30.3976 71.118 30.5693 71.2932C30.7411 71.4683 31.0846 71.6435 31.428 71.6435C31.7715 71.6435 31.9432 71.6435 32.115 71.6435C32.2867 71.8187 32.2867 72.169 32.4585 72.5193C32.4585 72.5193 31.9432 72.3442 31.428 72.169C31.2563 72.169 30.9128 71.9938 30.7411 71.9938C30.5693 71.9938 30.3976 71.8187 30.3976 71.8187L29.5389 71.4683C29.5389 71.4683 29.5389 71.4683 29.3672 71.4683C29.3672 71.4683 29.3672 71.4683 29.1954 71.4683C29.0237 71.4683 29.0237 71.2932 28.8519 71.2932C28.5085 71.118 28.3367 71.118 28.3367 71.118C28.165 70.7677 27.8215 70.067 27.6498 69.7167C27.9933 69.3664 28.6802 68.6657 28.3367 67.6147C28.165 67.0892 27.8215 66.5637 27.3063 66.0382C27.1346 65.8631 26.9628 65.5127 26.6193 65.3376C26.4476 65.1624 26.2759 64.9872 26.2759 64.8121C26.1041 65.3376 25.2454 67.6147 25.5889 68.6657C25.7607 69.1912 26.1041 69.5415 26.4476 69.7167C26.7911 69.8919 27.1346 69.8919 27.3063 69.8919C27.3063 70.067 27.478 70.4174 27.478 70.7677C27.478 70.7677 27.3063 70.5925 26.9628 70.5925C26.6193 70.4174 26.2759 70.2422 25.9324 70.067C25.5889 69.8919 25.2454 69.7167 24.9019 69.5415C24.5585 69.3664 24.3867 69.3664 24.3867 69.3664L23.3563 68.6657C23.1846 68.3154 23.0128 67.6147 22.8411 67.0892C23.1846 66.914 23.8715 66.2134 23.8715 65.1624C23.8715 64.6369 23.528 64.1114 23.1846 63.5859C23.0128 63.2356 22.8411 63.0604 22.6693 62.7101C22.4976 62.5349 22.3259 62.1846 22.3259 62.1846C21.9824 62.7101 20.9519 64.8121 20.9519 65.863C20.9519 66.0382 20.952 66.2134 21.1237 66.3885C21.4672 67.0892 21.9824 67.2644 22.3259 67.2644C22.3259 67.4395 22.3259 67.7899 22.3259 68.1402C22.3259 68.1402 22.1541 68.1402 21.9824 67.965C21.8106 67.7899 21.6389 67.7899 21.4672 67.6147C21.1237 67.2644 20.6085 66.9141 20.6085 66.9141C20.6085 66.9141 20.4367 66.7389 20.265 66.7389C20.0933 66.5637 19.9215 66.5637 19.9215 66.5637L18.5476 65.5127C18.3759 65.1624 18.3759 64.4617 18.3759 63.9362C18.7193 63.7611 19.5781 63.2356 19.5781 62.1846C19.5781 61.6591 19.4063 60.9584 19.0628 60.4329C18.8911 59.7323 18.5476 59.2068 18.3759 59.0316C18.0324 59.5571 16.6585 61.3087 16.6585 62.3597C16.6585 62.8852 16.8302 63.2356 17.1737 63.5859C17.5172 63.7611 17.6889 63.9362 18.0324 63.9362C18.0324 64.1114 18.0324 64.4617 18.0324 64.8121C18.0324 64.8121 17.8607 64.6369 17.6889 64.4617C17.5172 64.2866 17.1737 63.9362 16.8302 63.5859C16.6585 63.4107 16.4867 63.2356 16.315 63.0604C16.1433 62.8852 15.9715 62.7101 15.9715 62.7101C15.7998 62.5349 15.628 62.3597 15.628 62.3597C15.628 62.3597 15.4563 62.1846 15.1128 61.8343C14.9411 61.6591 14.7694 61.3088 14.7694 61.3088C14.7694 60.7833 14.7694 60.2578 14.7694 59.7323C15.2846 59.7323 16.1433 59.3819 16.315 58.3309C16.315 58.1558 16.315 57.8054 16.315 57.4551C16.315 57.1048 16.1433 56.7545 16.1433 56.5793C16.1433 56.229 15.9715 55.8786 15.9715 55.5283C15.9715 55.178 15.7998 55.0028 15.7998 54.8276C15.2846 55.178 13.7389 56.9296 13.5672 57.8054C13.5672 57.9806 13.5672 58.1558 13.5672 58.5061C13.5672 58.6813 13.5672 58.8564 13.7389 59.0316C13.7389 59.2068 13.9106 59.2068 14.0824 59.3819C14.2541 59.5571 14.4259 59.7323 14.5976 59.7323C14.5976 59.9074 14.4259 60.2578 14.4259 60.6081C14.4259 60.6081 14.0824 60.2578 13.7389 59.7323C13.3954 59.3819 13.052 58.8564 13.052 58.8564L12.365 59.3819L12.5367 59.7323C12.365 59.7323 12.1933 59.7323 12.0215 59.7323C11.8498 59.7323 11.8498 59.7323 11.678 59.7323C11.678 59.5571 11.5063 59.2068 11.3346 58.8564C11.1628 58.5061 10.8193 58.1558 10.3041 58.1558C9.2737 57.9806 7.0411 58.6813 6.52588 58.8564C6.69762 59.0316 6.86936 59.2068 7.0411 59.3819C7.21284 59.5571 7.55632 59.9074 7.8998 60.2578C8.58675 60.7833 9.27369 61.3088 9.78891 61.3088H9.96066C10.9911 61.3088 11.3346 60.6081 11.5063 60.2578C12.0215 60.4329 12.7085 60.4329 13.052 60.6081C13.052 60.6081 13.2237 60.7833 13.3954 60.9584C13.5672 61.1336 13.7389 61.4839 14.0824 61.8343C14.2541 62.1846 14.5976 62.3597 14.7694 62.7101C14.9411 62.8852 15.1128 63.0604 15.1128 63.0604C15.1128 63.0604 15.4563 63.4107 15.628 63.7611C15.7998 63.9362 15.9715 64.1114 15.9715 64.1114C16.1433 64.2866 16.1433 64.2866 16.1433 64.2866C15.7998 64.2866 15.4563 64.4617 15.2846 64.4617C15.2846 64.2866 15.1128 63.9362 14.7694 63.5859C14.5976 63.2356 14.0824 63.0604 13.5672 63.0604C12.5368 63.0604 10.4759 64.1114 9.96066 64.2866C10.3041 64.4617 10.8194 64.9872 11.678 65.3376C12.365 65.6879 13.2237 66.0382 13.7389 66.0382C14.9411 66.0382 15.2846 65.1624 15.2846 64.6369C15.7998 64.6369 16.4867 64.6369 16.8302 64.8121C16.8302 64.8121 17.002 64.9872 17.1737 65.1624C17.3454 65.3376 17.5172 65.5127 17.8607 65.6879C18.0324 65.863 18.3759 66.0382 18.5476 66.2134C18.7193 66.3886 18.8911 66.3885 18.8911 66.3885C18.8911 66.3885 19.2346 66.5637 19.4063 66.9141C19.578 67.0892 19.7498 67.0892 19.7498 67.2644C19.9215 67.2644 19.9215 67.4395 19.9215 67.4395L20.0932 67.6147C19.9215 67.6147 19.7498 67.7899 19.5781 67.7899C19.4063 67.7899 19.4063 67.7899 19.2346 67.965C19.0628 67.7899 18.8911 67.4395 18.7194 67.2644C18.3759 67.0892 18.0324 66.9141 17.5172 66.9141C16.4867 67.0892 14.5976 68.3154 14.0824 68.6657C14.4259 68.8409 15.1128 69.1912 15.7998 69.5415C16.6585 69.8919 17.3454 70.067 18.0324 70.067H18.2041C19.2346 69.8919 19.4063 69.016 19.4063 68.4905C19.9215 68.4905 20.6085 68.3154 20.9519 68.3154C20.9519 68.3154 21.6389 68.6657 22.3259 69.1912C23.0128 69.5415 23.6998 70.067 23.6998 70.067C23.6998 70.067 23.8715 70.067 23.8715 70.2422C24.0433 70.2422 24.215 70.4174 24.3867 70.5925C24.7302 70.7677 25.2454 70.9428 25.2454 70.9428C24.9019 71.118 24.7302 71.2932 24.3867 71.2932C24.215 71.118 24.0433 70.7677 23.6998 70.5925C23.3563 70.4174 23.0128 70.2422 22.3259 70.4174C21.2954 70.7677 19.7498 72.3442 19.2346 72.8697C19.4063 72.8697 19.7498 73.0448 19.9215 73.22C20.265 73.3952 20.6085 73.3952 21.1237 73.5703C21.9824 73.7455 22.8411 73.7455 23.3563 73.5703C24.3867 73.22 24.5585 72.169 24.5585 71.8187C25.0737 71.6435 25.7606 71.4683 26.1041 71.4683C26.1041 71.4683 26.2759 71.4683 26.4476 71.6435C26.6193 71.8187 26.9628 71.8187 27.3063 71.9938C27.8215 72.169 28.5085 72.5193 28.5085 72.5193C28.5085 72.5193 28.5085 72.5193 28.6802 72.5193C28.8519 72.5193 29.0237 72.6945 29.1954 72.6945C29.5389 72.8697 29.8824 72.8697 29.8824 72.8697L30.2259 73.0448C30.0541 73.22 29.8824 73.22 29.8824 73.3952C29.7106 73.3952 29.7106 73.5703 29.5389 73.5703C29.3672 73.3952 29.1954 73.22 28.6802 73.0448C28.3367 72.8697 27.8215 72.8697 27.3063 73.0448C26.4476 73.5703 24.9019 75.322 24.5585 75.8475C25.2454 76.0226 27.8215 76.373 28.6802 75.8475C28.6802 75.8475 28.8519 75.8475 28.8519 75.6723C29.7106 75.1468 29.5389 74.271 29.5389 73.7455C29.8824 73.5703 30.5693 73.22 31.0846 73.22C31.0846 73.22 31.2563 73.22 31.5998 73.3952C31.9433 73.5703 32.2867 73.5703 32.6302 73.7455C32.9737 73.9207 33.3172 73.9207 33.6606 73.9207C34.0041 73.9207 34.1759 73.9207 34.1759 73.9207C35.2063 74.0958 36.7519 74.271 38.1258 74.4462C38.1258 74.4462 38.2976 74.4462 38.4693 74.4462C33.8324 76.0227 32.6302 79.0005 32.6302 79.0005H34.6911C35.2063 77.2488 38.1258 75.8475 40.3585 75.1468C42.4193 76.0226 45.3389 77.424 46.0258 79.0005H48.0867C48.0867 79.0005 46.8845 76.0227 42.2476 74.4462C42.2476 74.4462 42.2476 74.4462 42.4193 74.4462C43.7932 74.271 46.1976 74.0958 47.7432 73.7455C47.915 73.7455 48.0867 73.7455 48.2585 73.5703C48.6019 73.3952 48.9454 73.3952 49.2889 73.22C49.6324 73.22 49.8041 73.0448 49.8041 73.0448C50.1476 73.22 50.8345 73.3952 51.3498 73.7455C51.3498 74.0958 51.178 75.1468 52.0367 75.6723H52.2085C53.2389 76.1978 55.6432 75.8475 56.3302 75.6723C55.9867 75.1468 54.6128 73.22 53.5823 72.8697C53.0671 72.6945 52.5519 72.6945 52.2085 72.8697C51.865 73.0448 51.5215 73.22 51.3498 73.3952C51.178 73.3952 51.178 73.22 51.0063 73.22C50.8345 73.0448 50.6628 73.0448 50.6628 72.8697L51.0063 72.6945C51.0063 72.6945 51.3498 72.5193 51.6932 72.5193C51.865 72.5193 52.0367 72.3442 52.2085 72.3442C52.3802 72.3442 52.3802 72.3442 52.3802 72.3442C52.3802 72.3442 52.8954 72.169 53.5823 71.8187C53.9258 71.6435 54.0976 71.6435 54.441 71.4683C54.6128 71.2932 54.7845 71.2932 54.7845 71.2932C55.2998 71.2932 55.9867 71.6435 56.3302 71.6435C56.3302 72.169 56.3302 73.0448 57.5323 73.3952C58.0476 73.5703 58.9063 73.5703 59.765 73.3952C60.1084 73.3952 60.6236 73.22 60.9671 73.0448C61.3106 72.8697 61.6541 72.8697 61.6541 72.6945C61.1389 72.169 59.5932 70.5925 58.5628 70.2422C58.0476 70.067 57.5324 70.2422 57.1889 70.4174C56.8454 70.5925 56.6737 70.9428 56.5019 71.118C56.3302 70.9428 55.9867 70.9428 55.6432 70.7677C55.6432 70.7677 55.9867 70.5925 56.3302 70.4174C56.5019 70.2422 56.6737 70.2422 56.8454 70.067C57.0171 70.067 57.0171 69.8919 57.0171 69.8919C57.0171 69.8919 57.7041 69.5415 58.391 69.016C59.078 68.6657 59.765 68.1402 59.765 68.1402C60.2802 68.1402 60.9671 68.1402 61.3106 68.3154C61.3106 68.6657 61.4824 69.5415 62.5128 69.8919H62.6845C63.1997 70.067 64.0584 69.7167 64.9171 69.5415C65.7758 69.1912 66.4628 68.8409 66.6345 68.6657C66.1193 68.3154 64.2302 66.9141 63.1997 66.9141C62.6845 66.9141 62.1693 67.0892 61.9976 67.2644C61.6541 67.4395 61.4823 67.7899 61.4823 67.965C61.3106 67.965 61.3106 67.965 61.1389 67.7899C60.9671 67.7899 60.7954 67.6147 60.6237 67.6147L60.9671 67.4395C60.9671 67.4395 60.9671 67.4395 61.1389 67.2644C61.3106 67.2644 61.3106 67.0892 61.4823 66.9141C61.8258 66.7389 61.9976 66.3885 61.9976 66.3885C61.9976 66.3885 62.1693 66.2134 62.341 66.2134C62.5128 66.0382 62.8563 65.863 63.028 65.6879C63.1997 65.5127 63.5432 65.3376 63.715 65.1624C63.8867 64.9872 64.0584 64.8121 64.0584 64.8121C64.4019 64.6369 65.2606 64.6369 65.6041 64.6369C65.7758 64.9872 66.1193 66.0382 67.1497 66.0382C67.665 66.0382 68.5236 65.6879 69.2106 65.3376C69.8976 64.9872 70.5845 64.4617 70.928 64.2866C70.4128 63.9362 68.3519 62.8852 67.3215 63.0604C66.8062 63.0604 66.291 63.2356 66.1193 63.5859C65.7758 63.9362 65.7758 64.2866 65.6041 64.4617C65.4323 64.4617 65.0889 64.4617 64.7454 64.2866C64.7454 64.2866 64.7454 64.2866 64.9171 64.1114C65.0889 63.9362 65.2606 63.7611 65.2606 63.7611C65.6041 63.4107 65.9476 63.0604 65.9476 63.0604C65.9476 63.0604 66.1193 62.8852 66.291 62.7101C66.4628 62.5349 66.8063 62.1846 66.978 61.8343C67.1497 61.4839 67.4932 61.3088 67.665 60.9584C67.8367 60.7833 68.0084 60.6081 68.0084 60.6081C68.3519 60.4329 69.0389 60.2578 69.5541 60.2578C69.7258 60.6081 70.241 61.4839 71.0997 61.3088H71.2715C71.7867 61.1336 72.4736 60.7833 73.1606 60.2578C73.5041 59.9074 73.8476 59.7323 74.0193 59.5571C74.191 59.3819 74.5345 59.0316 74.5345 59.0316C74.0193 58.8564 71.7867 58.1558 70.7562 58.3309C70.241 58.5061 69.8976 58.6813 69.7258 59.0316C69.5541 59.3819 69.3824 59.7323 69.3824 59.9074C69.2106 59.9074 69.2106 59.9074 69.0389 59.9074C68.8671 59.9074 68.6954 59.9074 68.5237 59.9074L68.6954 59.5571L68.0084 59.0316C66.978 59.0316 66.6345 59.5571 66.291 59.9074Z" fill="#F5EFDB"/>
<path d="M73.5039 46.9442C73.6756 46.2436 73.8473 45.7181 73.8473 45.7181C74.1908 45.3677 74.706 45.0174 75.0495 44.6671C75.393 45.0174 76.2517 45.5429 77.1104 44.8422C77.6256 44.4919 77.9691 43.7912 78.3125 42.9154C78.656 42.2148 78.8277 41.3389 78.9995 40.9886C78.3125 41.1638 76.0799 41.5141 75.393 42.0396C74.5343 42.7403 74.706 43.7913 74.8778 44.1416C74.706 44.3167 74.3626 44.4919 74.0191 44.4919C74.0191 44.4919 74.0191 44.1416 74.1908 43.6161C74.1908 43.0906 74.3625 42.7403 74.3625 42.7403C74.3625 42.7403 74.3625 42.5651 74.3625 42.2148C74.3625 41.8644 74.3626 41.5141 74.5343 41.1638C74.5343 40.8134 74.5343 40.4631 74.5343 40.1128C74.5343 39.7624 74.5343 39.5873 74.5343 39.5873C74.706 39.2369 75.2212 38.7115 75.5647 38.3611C75.9082 38.5363 76.7669 38.8866 77.4538 38.186C77.4538 38.186 77.6256 38.186 77.6256 38.0108C77.9691 37.6605 78.3125 36.7846 78.4843 35.9088C78.656 35.033 78.8278 34.3323 78.8278 33.982C78.3125 34.1572 76.0799 34.8578 75.393 35.7336C75.0495 36.084 74.8778 36.6095 74.8778 36.9598C74.8778 37.3101 75.0495 37.6605 75.0495 37.8356C75.0495 37.8356 74.8778 38.0108 74.706 38.0108C74.5343 38.186 74.3625 38.186 74.3625 38.3611V38.0108V36.6095C74.3625 36.6095 74.3625 36.4343 74.3625 36.2591C74.3625 36.084 74.3625 35.7336 74.3625 35.3833C74.3625 35.033 74.3625 34.6827 74.3625 34.5075C74.3625 34.3323 74.3625 34.1571 74.3625 34.1571C74.5343 33.8068 74.8778 33.1062 75.2212 32.7558C75.5647 32.931 76.5951 33.1062 77.2821 32.2303C77.6256 31.88 77.7973 31.0042 77.9691 30.1284C78.1408 29.2525 78.1408 28.3767 77.9691 28.0264C77.4539 28.3767 75.393 29.4277 74.706 30.3035C74.3625 30.829 74.3625 31.1793 74.3625 31.7048C74.3625 32.0552 74.5343 32.4055 74.706 32.5807C74.5343 32.7558 74.3626 32.931 74.0191 33.2813C74.0191 33.2813 74.0191 32.7558 73.8473 32.4055C73.8473 32.0552 73.6756 31.5297 73.6756 31.5297C73.6756 31.5297 73.6756 31.3545 73.6756 31.0042C73.6756 30.6538 73.5039 30.3035 73.5039 29.9532C73.5039 29.6028 73.3321 29.2525 73.3321 28.9022C73.3321 28.5519 73.1604 28.3767 73.1604 28.3767C73.3321 28.0264 73.5038 27.3257 73.8473 26.8002C74.1908 26.8002 75.2212 26.9754 75.7365 26.0995V25.9244C76.2517 25.0485 75.9082 22.4211 75.7365 21.7204C75.2212 22.0707 73.3321 23.4721 72.9886 24.523C72.8169 25.0485 72.8169 25.574 72.9886 25.9244C73.1604 26.2747 73.3321 26.625 73.5039 26.8002C73.5039 26.9754 73.3321 26.9754 73.3321 27.1505C73.1604 27.3257 73.1604 27.5009 72.9886 27.5009L72.8169 27.1505C72.8169 27.1505 72.6452 26.8002 72.6452 26.4499C72.6452 26.2747 72.4734 26.0995 72.4734 25.9244C72.4734 25.7492 72.4734 25.7492 72.4734 25.7492C72.4734 25.7492 72.3017 25.2237 71.9582 24.523C71.7865 24.1727 71.7865 23.9976 71.6147 23.6472C71.443 23.4721 71.443 23.2969 71.443 23.2969C71.443 22.7714 71.7865 22.2459 71.7865 21.7204C72.3017 21.7204 73.1604 21.7204 73.5039 20.4943C73.6756 19.9688 73.6756 19.0929 73.5039 18.2171C73.5039 17.8668 73.3321 17.3413 73.1604 16.9909C72.9886 16.6406 72.9886 16.2903 72.8169 16.2903C72.3017 16.8158 70.756 18.3923 70.4125 19.4432C70.2408 19.9687 70.4126 20.4942 70.5843 20.8446C70.756 21.1949 71.0995 21.3701 71.2712 21.5452C71.0995 21.7204 71.0995 22.0707 70.9278 22.4211C70.9278 22.4211 70.756 22.0707 70.5843 21.5452C70.4126 21.3701 70.4126 21.1949 70.2408 21.0197C70.2408 20.8446 70.0691 20.8446 70.0691 20.8446C70.0691 20.8446 69.7256 20.1439 69.3821 19.4432C69.0387 18.7426 68.5234 18.0419 68.5234 18.0419C68.5234 17.5164 68.5234 16.8158 68.6952 16.4654C69.0386 16.4654 69.8974 16.2903 70.2408 15.2393V15.0641C70.4126 14.5386 70.0691 13.6628 69.8973 12.787C69.5539 11.9111 69.2104 11.2105 69.0386 11.0353C68.6952 11.5608 67.3213 13.4876 67.1495 14.5386C67.1495 15.0641 67.3213 15.5896 67.493 15.7648C67.6647 16.1151 68.0082 16.2903 68.1799 16.2903C68.1799 16.4654 68.18 16.4654 68.0082 16.6406C68.0082 16.8158 67.8365 16.9909 67.8365 17.1661L67.6647 16.8158C67.6647 16.8158 67.6647 16.8158 67.493 16.6406C67.493 16.4654 67.3213 16.4654 67.1495 16.2903C66.9778 15.9399 66.6343 15.7648 66.6343 15.7648C66.6343 15.7648 66.4626 15.5896 66.4626 15.4145C66.2908 15.2393 66.1191 14.889 65.9474 14.7138C65.7756 14.5386 65.6039 14.1883 65.4321 14.0131C65.2604 13.838 65.2604 13.6628 65.2604 13.6628C65.0886 13.3125 65.0887 12.4366 65.0887 12.0863C65.4321 11.9111 66.4626 11.5608 66.4626 10.5098C66.4626 9.98432 66.1191 9.1085 65.7756 8.40784C65.4321 7.70717 64.9169 7.00651 64.7452 6.65618C64.4017 7.18168 63.3713 9.28366 63.543 10.3347C63.543 10.8601 63.7147 11.3856 64.0582 11.5608C64.4017 11.9111 64.7452 11.9111 64.9169 12.0863C64.9169 12.2615 64.9169 12.6118 64.7452 12.9621C64.7452 12.9621 64.7452 12.9621 64.5734 12.787C64.4017 12.6118 64.4017 12.4366 64.23 12.4366C63.8865 12.0863 63.543 11.9111 63.543 11.9111C63.543 11.9111 63.3713 11.736 63.1995 11.5608C63.0278 11.3856 62.6843 11.0353 62.3408 10.8602C61.9974 10.685 61.8256 10.3347 61.4821 10.1595C61.3104 9.98432 61.1387 9.80915 61.1387 9.80915C60.9669 9.45882 60.7952 8.75817 60.7952 8.23267C61.1387 8.05751 61.9974 7.53201 61.8256 6.65618V6.48102C61.6539 5.95552 61.3104 5.25485 60.7952 4.55419C60.4517 4.20386 60.28 3.85353 59.9365 3.67836C59.7648 3.50319 59.4213 3.15287 59.4213 3.15287C59.2495 3.67837 58.5626 5.95551 58.7343 7.00651C58.906 7.532 59.0778 7.88233 59.4213 8.0575C59.7648 8.23266 60.1082 8.40784 60.28 8.40784C60.28 8.583 60.28 8.58299 60.28 8.75816C60.28 8.93333 60.28 9.1085 60.28 9.28366L60.1082 9.1085C60.1082 9.1085 59.7647 8.93333 59.593 8.75816C59.4213 8.58299 59.2495 8.583 59.2495 8.40784C59.0778 8.40784 59.0778 8.23267 59.0778 8.23267C59.0778 8.23267 58.5626 7.88234 58.0474 7.53201C57.7039 7.35684 57.5322 7.18167 57.3604 7.00651C57.1887 6.83134 57.0169 6.83134 57.0169 6.83134C56.8452 6.65618 56.8452 6.30584 56.6734 6.13068C56.5017 5.78035 56.5017 5.60518 56.33 5.43001C56.6735 5.25485 57.5321 4.55419 57.1887 3.5032C57.0169 2.9777 56.5017 2.27704 55.8148 1.75154C55.4713 1.40121 55.1278 1.22604 54.9561 1.05088C54.6126 0.875713 54.4409 0.700556 54.2691 0.525391C54.2691 0.875721 54.0974 1.57638 54.0974 2.27704C54.0974 2.97771 54.0974 3.85353 54.2691 4.37902C54.4409 4.90452 54.7843 5.25485 55.1278 5.43001C55.4713 5.60518 55.8148 5.60519 55.9865 5.60519C55.9865 5.78036 56.1582 6.13069 56.1582 6.48102C56.1582 6.48102 54.6126 5.95552 54.0974 5.78035C53.9256 5.60519 53.2387 5.43002 52.38 5.07969C52.38 4.72936 52.5517 3.67837 51.3496 3.15287C50.4909 2.80254 48.0865 3.15287 47.5713 3.15287C47.9148 3.67837 49.2887 5.60519 50.1474 5.95552C51.1778 6.30585 51.8648 5.78035 52.0365 5.43001C53.5822 6.30584 55.2995 7.18168 55.4713 7.35684C55.8148 7.53201 56.1582 7.70717 56.5017 7.88233C56.8452 8.0575 57.0169 8.23267 57.0169 8.23267C56.6734 8.40784 56.5017 8.40783 56.1582 8.583C55.9865 8.40783 55.8148 8.0575 55.4713 7.88233C55.1278 7.70717 54.7843 7.70717 54.2691 7.88233C53.4104 8.23266 52.0365 10.1595 51.693 10.685C51.8648 10.685 52.0365 10.685 52.38 10.685C52.7235 10.685 52.8952 10.685 53.2387 10.8602C53.9256 10.8602 54.6126 10.8601 55.1278 10.685C56.1582 10.3346 56.33 9.45882 56.33 8.93332C56.8452 8.75816 57.3604 8.75816 57.8756 8.75816C57.8756 8.75816 58.2191 8.93333 58.3908 9.1085C58.5626 9.1085 58.5626 9.28366 58.7343 9.28366C58.906 9.28366 58.9061 9.45883 58.9061 9.45883L59.593 9.98433C59.593 9.98433 59.9365 10.3346 60.4517 10.685C60.7952 11.0353 61.3104 11.3856 61.3104 11.3856C60.9669 11.3856 60.6234 11.5608 60.4517 11.5608C60.4517 11.3856 60.28 11.2105 60.1082 11.0353C59.9365 10.8602 59.9365 10.8601 59.7648 10.685C59.593 10.685 59.4213 10.5098 59.2495 10.5098C59.0778 10.5098 58.9061 10.5098 58.5626 10.5098C57.5322 10.685 55.9865 12.4366 55.643 12.787C55.8148 12.787 55.9865 12.9621 56.33 12.9621C56.6735 12.9621 57.0169 13.1373 57.3604 13.1373C57.7039 13.1373 58.0474 13.3125 58.2191 13.3125C58.5626 13.3125 58.7343 13.3125 59.0778 13.3125C60.1082 13.1373 60.4517 12.2615 60.4517 11.736C60.9669 11.736 61.6539 11.736 61.9974 11.736C61.9974 11.736 62.1691 11.9111 62.5126 12.0863C62.6843 12.2615 63.0278 12.6118 63.0278 12.6118C63.0278 12.6118 63.1995 12.787 63.3713 12.9621C63.543 13.1373 63.543 13.1373 63.7147 13.3125C63.8865 13.4876 64.0582 13.6628 64.23 13.838C64.5734 14.1883 64.7452 14.5386 65.0887 14.7138C65.2604 14.889 65.4321 15.0641 65.4321 15.0641C65.0887 15.0641 64.7452 15.0641 64.5734 15.0641C64.5734 14.8889 64.4017 14.5386 64.23 14.1883C64.0582 13.838 63.543 13.6628 63.0278 13.6628C61.9973 13.6628 60.1082 15.0641 59.7648 15.4145C59.9365 15.5896 60.6235 15.7648 61.1387 16.1151C61.8256 16.4654 62.5126 16.6406 62.8561 16.6406C63.8865 16.6406 64.4017 15.7648 64.5734 15.4145C65.0887 15.4145 65.7756 15.5896 66.1191 15.5896L66.9778 16.6406C66.9778 16.6406 67.1495 16.8158 67.1495 16.9909C67.3213 17.1661 67.3212 17.3413 67.3212 17.3413C67.3212 17.3413 67.6647 17.6916 67.8365 18.2171C68.0082 18.3923 68.1799 18.7426 68.1799 18.7426C68.3517 18.9178 68.3517 19.0929 68.3517 19.0929C68.0082 19.0929 67.6647 19.0929 67.493 19.0929C67.493 18.7426 67.3213 18.0419 66.6343 17.8668C66.4626 17.8668 66.2908 17.6916 66.1191 17.6916C65.0886 17.5164 63.0278 18.7426 62.5126 18.9178C62.6843 18.9178 62.856 19.0929 63.0278 19.2681C63.1995 19.4433 63.543 19.6184 63.8865 19.7936C64.4017 20.1439 65.0887 20.4943 65.4321 20.4943C66.4626 20.6694 66.9778 19.9687 67.3212 19.4432C67.6647 19.6184 68.3517 19.7936 68.8669 19.9688L69.5539 21.0197C69.5539 21.0197 69.7256 21.1949 69.7256 21.5452C69.8973 21.8956 70.0691 22.2459 70.2408 22.5962C70.4126 22.9466 70.5843 23.4721 70.756 23.6472C70.9278 23.9976 70.9278 24.1727 70.9278 24.1727C70.5843 24.1727 70.2408 23.9976 70.0691 23.9976C70.0691 23.8224 70.0691 23.4721 69.8973 23.1217C69.7256 22.7714 69.3821 22.4211 68.8669 22.2459C67.8365 21.8956 65.7756 22.7714 65.0887 22.9466C65.4321 23.2969 66.806 24.6982 67.8365 25.0485C68.8669 25.3989 69.5539 24.6982 69.8973 24.3479C70.2408 24.5231 70.9278 24.8734 71.2712 25.0485C71.2712 25.0485 71.443 25.3989 71.443 25.574C71.443 25.7492 71.6147 25.9244 71.6147 25.9244C71.6147 26.0995 71.6147 26.0995 71.6147 26.0995L71.9582 26.9754C71.9582 26.9754 71.9582 27.1505 72.1299 27.3257C72.1299 27.5009 72.3017 27.8512 72.3017 28.0264C72.4734 28.5519 72.6452 29.0773 72.6452 29.0773C72.3017 28.9022 72.1299 28.9022 71.7865 28.727C71.7865 28.5519 71.7865 28.3767 71.7865 28.0264C71.7865 27.676 71.6147 27.5009 71.443 27.1505C71.2713 26.9754 71.0995 26.9754 70.9278 26.8002C70.4126 26.625 69.7256 26.625 68.8669 26.625C68.18 26.625 67.3213 26.8002 67.1495 26.9754C67.3213 27.1505 67.6647 27.676 68.1799 28.2015C68.3517 28.3767 68.6952 28.727 68.8669 28.9022C69.0387 29.0774 69.3821 29.2525 69.5539 29.4277C70.5843 29.9532 71.2712 29.4277 71.6147 29.0773C71.9582 29.2525 72.4734 29.778 72.8169 29.9532C72.8169 29.9532 72.8169 30.3035 72.9886 30.6538C72.9886 30.829 72.9886 31.0042 72.9886 31.0042C72.9886 31.1793 72.9886 31.1793 72.9886 31.1793C72.9886 31.1793 72.9886 31.3545 73.1604 31.7048C73.1604 32.0552 73.3321 32.4055 73.3321 32.931C73.3321 33.4565 73.5039 33.8068 73.5039 34.1571C73.5039 34.5075 73.5039 34.6826 73.5039 34.6826C73.1604 34.5075 72.9886 34.3323 72.8169 34.1571C72.8169 33.982 72.9886 33.6317 72.9886 33.2813C72.9886 32.931 72.8169 32.5807 72.3017 32.2303C71.443 31.7048 69.2104 31.7048 68.5234 31.7048C68.6952 31.88 68.8669 32.5807 69.2104 33.1062C69.5539 33.6317 69.8973 34.3323 70.4125 34.5075C71.2712 35.033 72.1299 34.6827 72.4734 34.5075C72.8169 34.8578 73.3321 35.2081 73.5039 35.5585C73.5039 35.5585 73.5039 35.9088 73.5039 36.2591C73.5039 36.6095 73.5039 36.9598 73.5039 36.9598V37.8356C73.5039 37.8356 73.5039 38.3611 73.5039 38.8866C73.5039 39.0618 73.5039 39.4121 73.5039 39.5873C73.5039 39.7624 73.5039 39.9376 73.5039 39.9376C73.3321 39.7624 72.9886 39.5873 72.8169 39.4121C72.9886 39.0618 73.1604 38.5363 72.9886 37.8356C72.8169 37.6605 72.8169 37.4853 72.6452 37.3101C71.9582 36.6095 69.5539 36.2591 69.0386 36.2591C69.0386 36.6095 69.3821 37.135 69.5539 37.8356C69.7256 38.3611 70.0691 39.0618 70.4125 39.4121C71.0995 40.1128 72.1299 39.9376 72.4734 39.7624C72.8169 40.1128 73.1604 40.6383 73.3321 40.9886C73.3321 40.9886 73.3321 40.9886 73.3321 41.1638C73.3321 41.3389 73.3321 41.5141 73.3321 41.6893C73.3321 42.0396 73.3321 42.3899 73.3321 42.3899C73.3321 42.3899 73.3321 42.5651 73.3321 42.9154C73.3321 43.2658 73.1604 43.6161 73.1604 44.1416C73.1604 44.4919 72.9886 45.0174 72.9886 45.3677C72.9886 45.7181 72.8169 45.8932 72.8169 45.8932C72.6452 45.7181 72.4734 45.3677 72.3017 45.1926C72.6452 44.8422 72.9886 43.9664 72.3017 43.0906C71.6147 42.2148 69.5539 41.5141 68.8669 41.5141C68.8669 41.6893 69.0386 42.3899 69.2104 43.0906C69.3821 43.7912 69.5539 44.4919 69.8973 44.8422C70.5843 45.7181 71.443 45.5429 71.9582 45.5429C72.13 45.8932 72.4734 46.5939 72.6452 46.9442L72.3017 48.1704C72.3017 48.1704 72.3017 48.3456 72.1299 48.5207C72.1299 48.6959 71.9582 48.871 71.9582 48.871C71.9582 48.871 71.7865 49.3965 71.6147 49.922C71.6147 50.0972 71.443 50.4475 71.443 50.6227C71.443 50.7979 71.2712 50.973 71.2712 50.973C71.0995 50.7979 70.9278 50.4475 70.756 50.2724C71.0995 50.0972 71.443 49.5717 71.2712 48.871C71.2712 48.6959 71.0995 48.5207 71.0995 48.3455C70.5843 47.4697 68.5234 46.4187 68.0082 46.2436C68.0082 46.4187 68.0082 46.5939 68.0082 46.9442C68.0082 47.2946 68.0082 47.6449 68.0082 47.9952C68.0082 48.6959 68.18 49.3965 68.3517 49.7469C68.8669 50.6227 69.7256 50.7979 70.2408 50.6227C70.4126 50.973 70.756 51.6737 70.756 52.1992L70.2408 53.4253C70.2408 53.4253 70.2408 53.4253 70.2408 53.6005C70.2408 53.6005 70.0691 53.7757 70.0691 53.9508C69.8973 54.3012 69.7256 54.6515 69.5539 55.0018C69.3821 55.3522 69.2104 55.7025 69.0386 56.0528C68.8669 56.4032 68.6952 56.5783 68.6952 56.5783C68.5234 56.228 68.5234 56.0528 68.3517 55.7025C68.5234 55.5273 68.8669 55.3522 69.0386 55.0018C69.2104 54.6515 69.2104 54.3012 69.0386 53.7757C68.6952 52.8999 66.806 51.4985 66.2908 51.1482C66.2908 51.3234 66.2908 51.4985 66.2908 51.8489C66.2908 52.1992 66.2908 52.3743 66.1191 52.7247C66.1191 53.4253 66.1191 54.126 66.2908 54.6515C66.6343 55.7025 67.493 55.8777 68.0082 55.8777C68.18 56.4032 68.1799 56.9287 68.1799 57.4542C68.1799 57.4542 68.0082 57.8045 67.8365 57.9796C67.6647 58.1548 67.6647 58.33 67.6647 58.33C67.6647 58.5051 67.493 58.5051 67.493 58.5051L66.9778 59.2058L67.6647 59.7313C67.6647 59.7313 67.8365 59.381 68.0082 59.2058C68.18 59.0306 68.18 58.8555 68.3517 58.8555C68.3517 58.6803 68.5234 58.6803 68.5234 58.6803C68.5234 58.6803 68.8669 58.1548 69.2104 57.6293C69.3821 57.279 69.5539 57.1038 69.7256 56.9287C69.8973 56.7535 69.8973 56.5783 69.8973 56.5783C70.0691 56.4032 70.4126 56.4032 70.5843 56.228C70.9278 56.0528 71.0995 56.0528 71.2712 55.8777C71.443 56.228 72.1299 57.1038 73.1604 56.5783C73.6756 56.4032 74.3626 55.8777 74.8778 55.177C75.2212 54.8267 75.393 54.4763 75.5647 54.3012C75.7365 53.9508 75.9082 53.7757 76.0799 53.6005C75.7365 53.6005 75.0495 53.4253 74.3625 53.4253C73.6756 53.4253 72.8169 53.4253 72.3017 53.6005C71.7865 53.7757 71.443 54.126 71.2712 54.4763C71.0995 54.8267 71.0995 55.177 71.0995 55.3522C70.9278 55.3522 70.5843 55.5273 70.2408 55.5273C70.2408 55.5273 70.4126 55.177 70.5843 54.8267C70.756 54.6515 70.756 54.4763 70.9278 54.3012C70.9278 54.126 71.0995 54.126 71.0995 54.126C71.0995 54.126 71.0995 53.9508 71.2712 53.6005C71.443 53.2502 71.6147 52.8998 71.7865 52.5495C72.1299 51.8489 72.3017 51.1482 72.3017 51.1482C72.6452 50.7979 73.1604 50.4475 73.6756 50.2724C74.0191 50.6227 74.5343 51.1482 75.5647 50.7979H75.7365C76.2517 50.6227 76.7669 49.922 77.2821 49.2214C77.7973 48.5207 78.1408 47.82 78.3125 47.4697C77.6256 47.4697 75.393 47.4697 74.5343 47.9952C74.0191 48.3456 73.8473 48.6959 73.6756 49.0462C73.5039 49.3965 73.6756 49.7469 73.6756 49.922C73.5039 49.922 73.5038 50.0972 73.3321 50.0972C73.1604 50.0972 72.9886 50.2724 72.8169 50.2724L72.9886 49.922C72.9886 49.922 72.9886 49.922 72.9886 49.7469C72.9886 49.5717 73.1604 49.3965 73.1604 49.2214C73.3321 48.871 73.3321 48.5207 73.3321 48.5207C73.3321 48.5207 73.3321 48.3455 73.5039 48.1704C73.3321 47.4697 73.3321 47.2946 73.5039 46.9442Z" fill="#F5EFDB"/>
<path d="M33.3957 53C33.337 53 33.3077 52.9085 33.3077 52.7256C33.3077 52.5426 33.337 52.4511 33.3957 52.4511C34.6871 52.4511 35.6557 52.3749 36.3014 52.2224C36.9765 52.0394 37.4607 51.7345 37.7542 51.3076C38.0477 50.8502 38.1945 50.1793 38.1945 49.295V32.2792C38.1945 30.2056 37.7249 29.1688 36.7857 29.1688C36.0813 29.1688 34.9513 29.7482 33.3957 30.9069L33.3077 30.9527C33.1903 30.9527 33.1022 30.8917 33.0435 30.7697C32.9848 30.6172 32.9848 30.5105 33.0435 30.4495L41.5404 24.0915C41.6578 24.0305 41.7605 24 41.8486 24C41.9073 24 41.966 24.0305 42.0247 24.0915C42.0834 24.1525 42.1127 24.2135 42.1127 24.2744V49.295C42.1127 50.2098 42.2448 50.8807 42.5089 51.3076C42.7731 51.7345 43.228 52.0394 43.8737 52.2224C44.5488 52.3749 45.5467 52.4511 46.8674 52.4511C46.9555 52.4511 46.9995 52.5426 46.9995 52.7256C46.9995 52.9085 46.9555 53 46.8674 53C45.6934 53 44.7689 52.9848 44.0939 52.9543L40.1316 52.9085L36.3014 52.9543C35.597 52.9848 34.6284 53 33.3957 53Z" fill="#AAAAAA"/>
</svg>
