<svg width="79" height="79" viewBox="0 0 79 79" fill="none" xmlns="http://www.w3.org/2000/svg">
<path d="M73.7119 54.3325C73.5517 54.01 73.2312 53.6876 72.9107 53.5263C72.43 53.0427 71.9493 52.8814 71.9493 52.8814C71.9493 52.8814 71.4685 52.7202 70.8276 52.7202C70.5071 52.7202 70.1866 52.7202 69.7059 52.7202C69.3854 52.7202 68.9046 52.8815 68.5842 53.0427C68.2637 53.2039 67.9432 53.3651 67.7829 53.5263C67.3022 53.8488 66.9817 54.1712 66.6612 54.4937C66.501 54.6549 66.501 54.8162 66.3408 54.8162C66.3408 54.9774 66.1805 54.9773 66.1805 54.9773C66.1805 54.9773 66.6612 55.1386 67.3022 55.2998C67.6227 55.2998 67.9432 55.461 68.4239 55.461C68.7444 55.461 69.2251 55.461 69.7059 55.2998C70.0263 55.1386 70.3468 54.9774 70.6673 54.8162C71.1481 54.4937 71.4685 54.01 71.789 53.6876C72.1095 53.3651 72.1095 53.0427 72.1095 53.0427C72.1095 53.0427 71.9493 53.3651 71.9493 53.8488C71.789 54.3325 71.789 54.8161 71.789 55.461C71.789 55.7835 71.789 56.1059 71.9493 56.5896C72.1095 57.0732 72.2697 57.3957 72.43 57.7182C72.5902 58.0406 72.9107 58.3631 73.071 58.6855C73.5517 59.1692 73.8722 59.4916 73.8722 59.4916C73.8722 59.4916 73.8722 59.4916 74.0324 59.3304C74.0324 59.1692 74.1927 59.008 74.3529 58.8467C74.5132 58.3631 74.6734 57.7182 74.6734 57.0733C74.6734 56.7508 74.6734 56.2671 74.5132 55.9447C74.1927 54.9773 74.0324 54.6549 73.7119 54.3325Z" fill="#F5EFDB"/>
<path d="M76.2757 49.9793C76.1154 49.4957 75.7949 49.1732 75.4744 48.8508C75.154 48.5283 74.8335 48.3671 74.6732 48.2059C74.0323 47.8834 73.7118 47.7222 73.7118 47.7222C73.7118 47.7222 73.231 47.7222 72.5901 47.7222C72.2696 47.7222 71.9491 47.7222 71.4684 47.8834C71.1479 48.0446 70.6671 48.0447 70.3467 48.3671C70.0262 48.5283 69.7057 48.8508 69.3852 49.012C69.0647 49.3344 68.9045 49.4957 68.7442 49.8181C68.584 50.1406 68.4237 50.3018 68.4237 50.463C68.2635 50.6242 68.2635 50.7855 68.2635 50.7855C68.2635 50.7855 68.7442 50.9467 69.3852 50.9467C70.0262 50.9467 70.8274 50.9467 71.6286 50.6242C71.9491 50.463 72.2696 50.1406 72.5901 49.8181C72.9105 49.4957 73.0708 49.1732 73.231 49.012C73.5515 48.5283 73.7118 48.0446 73.7118 47.8834C73.7118 47.8834 73.5515 48.3671 73.5515 49.012C73.5515 49.3344 73.5515 49.6569 73.5515 50.1405C73.5515 50.463 73.7118 50.9467 73.872 51.2691C74.1925 52.0752 74.8335 52.7202 75.3142 53.2038C75.7949 53.6875 76.2757 53.8487 76.2757 53.8487C76.2757 53.8487 76.2757 53.6875 76.4359 53.5262C76.4359 53.365 76.5961 53.0426 76.5961 52.7201C76.5961 52.3977 76.5961 51.914 76.5961 51.4304C76.5961 50.9467 76.4359 50.463 76.2757 49.9793Z" fill="#F5EFDB"/>
<path d="M77.8785 45.6272C77.7182 45.1435 77.558 44.8211 77.3978 44.3374C77.0773 44.015 76.917 43.6925 76.5965 43.3701C76.276 43.0476 75.9556 42.8864 75.6351 42.8864C74.9941 42.5639 74.5134 42.564 74.5134 42.564C74.5134 42.564 74.0326 42.564 73.3917 42.7252C73.0712 42.7252 72.7507 42.8864 72.27 43.0476C71.9495 43.2088 71.4688 43.3701 71.1483 43.6925C70.8278 44.0149 70.5073 44.1762 70.3471 44.4986C70.1868 44.8211 70.0266 45.1435 69.8663 45.3047C69.7061 45.7884 69.5458 46.2721 69.5458 46.2721C69.5458 46.2721 70.0266 46.2721 70.6675 46.2721C71.3085 46.2721 72.1097 46.1109 72.9109 45.466C73.2314 45.1435 73.5519 44.9823 73.7122 44.6599C73.8724 44.3374 74.0326 44.0149 74.1929 43.6925C74.3531 43.0476 74.5134 42.564 74.5134 42.564C74.5134 42.564 74.5134 43.0476 74.5134 43.6925C74.5134 44.0149 74.6736 44.3374 74.6736 44.8211C74.8339 45.1435 74.9941 45.6272 75.1544 45.9497C75.6351 46.7558 76.276 47.2395 76.917 47.5619C77.558 47.8844 77.8785 48.0456 77.8785 48.0456C77.8785 48.0456 78.0387 47.5619 78.0387 46.7558C78.0387 46.4333 78.0387 46.1109 77.8785 45.6272Z" fill="#F5EFDB"/>
<path d="M78.8396 41.4349C78.8396 40.9512 78.6794 40.3063 78.3589 39.6614C78.1986 39.339 78.0384 39.0166 77.7179 38.6941C77.0769 38.0492 76.2757 37.7268 75.6347 37.5655C74.9937 37.4043 74.513 37.4043 74.513 37.4043C74.513 37.4043 74.0323 37.4043 73.3913 37.7268C72.7504 37.888 71.9491 38.3716 71.4684 39.0165C71.1479 39.339 70.9877 39.5002 70.8274 39.8227C70.5069 40.3063 70.3467 40.79 70.3467 41.2737C70.3467 41.4349 70.3467 41.5961 70.1865 41.7574C70.1865 41.9186 70.1865 41.9186 70.1865 41.9186C70.1865 41.9186 70.6672 41.9186 71.3082 41.7574C71.9491 41.5961 72.7504 41.2737 73.3913 40.6288C73.7118 40.3063 73.872 40.1451 74.0323 39.8227C74.3528 39.339 74.3528 38.6941 74.513 38.3717C74.513 37.888 74.513 37.5655 74.513 37.5655C74.513 37.5655 74.513 37.888 74.6733 38.3717C74.8335 38.8553 74.8335 39.339 75.154 39.9839C75.3143 40.3063 75.4745 40.6288 75.795 40.9512C76.4359 41.5961 77.0769 42.0798 77.7179 42.241C78.3589 42.5635 78.8396 42.5635 78.8396 42.5635V42.4023C78.8396 41.9186 78.8396 41.5961 78.8396 41.4349Z" fill="#F5EFDB"/>
<path d="M63.1358 65.6185C63.1358 65.6185 62.8153 65.2961 62.1743 64.9736C61.5333 64.6512 60.8923 64.3287 59.9309 64.1675C59.6104 64.1675 59.2899 64.1675 58.9694 64.1675C58.3284 64.3287 57.8477 64.4899 57.5272 64.6511C57.2067 64.8124 56.8862 64.9736 56.8862 64.9736C56.8862 64.9736 57.2067 65.2961 57.6875 65.7797C58.1682 66.2634 58.9694 66.5859 59.7706 66.7471C60.0911 66.7471 60.4116 66.7471 60.7321 66.7471C61.3731 66.5859 61.8538 66.4247 62.1743 66.1022C62.9755 65.941 63.1358 65.7797 63.1358 65.6185C63.1358 65.6185 62.8153 65.9409 62.655 66.2634C62.3345 66.5858 62.014 67.0695 61.8538 67.5532C61.6936 67.8757 61.5333 68.1981 61.5333 68.5206C61.3731 69.3267 61.5333 70.2941 61.6935 70.939C61.8538 71.5838 62.1743 72.0675 62.1743 72.0675C62.1743 72.0675 62.4948 71.9063 62.8153 71.5838C63.1357 71.2614 63.6165 70.7777 63.937 70.1328C64.0972 69.8104 64.2575 69.4879 64.2575 69.0042C64.4177 68.0369 64.0972 67.2308 63.937 66.5859C63.4562 66.1022 63.1358 65.6185 63.1358 65.6185Z" fill="#F5EFDB"/>
<path d="M66.8212 61.9102C66.8212 61.9102 66.3405 61.5878 65.8598 61.4265C65.2188 61.1041 64.4176 60.9429 63.6164 60.9429C63.4561 60.9429 63.1356 60.9429 62.9754 61.1041C62.8151 61.1041 62.6549 61.2653 62.4947 61.2653C62.1742 61.4266 61.8537 61.5878 61.6934 61.749C61.3729 61.9102 61.2127 62.0715 61.0525 62.0715C60.8922 62.2327 60.8922 62.2327 60.8922 62.2327C60.8922 62.2327 61.2127 62.5551 61.8537 62.8776C62.1742 63.0388 62.4946 63.2 62.8151 63.3612C62.9754 63.3612 63.1356 63.5225 63.4561 63.5225C63.6164 63.5225 63.9368 63.5225 64.0971 63.5225C64.5778 63.5225 64.8983 63.3612 65.2188 63.2C65.5393 63.0388 65.8598 62.8776 66.1803 62.7164C66.3405 62.2327 66.661 61.9102 66.8212 61.9102C66.8212 61.9102 66.5008 62.3939 66.1803 62.8776C66.02 63.2 65.8598 63.5225 65.6995 63.8449C65.5393 64.1674 65.5393 64.651 65.5393 64.9735C65.5393 65.1347 65.5393 65.4572 65.5393 65.6184C65.5393 65.7796 65.5393 66.1021 65.6995 66.2633C65.8598 66.5857 65.8598 67.0694 66.02 67.3919C66.3405 68.0368 66.661 68.3592 66.661 68.3592C66.661 68.3592 66.8212 68.198 66.9815 68.0368C67.1417 67.8755 67.302 67.5531 67.4622 67.3919C67.6225 67.0694 67.7827 66.747 67.943 66.2633C67.943 66.1021 68.1032 65.7796 68.1032 65.6184C68.1032 65.4572 68.1032 65.1347 68.1032 64.9735C68.1032 64.0061 67.7827 63.2 67.4622 62.7164C67.1417 62.2327 66.8212 61.9102 66.8212 61.9102Z" fill="#F5EFDB"/>
<path d="M70.6672 58.3629C70.1864 57.8792 69.866 57.5568 69.866 57.5568C69.866 57.5568 69.3852 57.3956 68.7443 57.2344C68.1033 57.0731 67.3021 56.9119 66.5008 57.0731C65.6996 57.2344 65.0586 57.718 64.5779 58.0405C64.4177 58.2017 64.0972 58.3629 64.0972 58.5241C63.9369 58.6854 63.937 58.6854 63.937 58.6854C63.937 58.6854 64.4177 59.0078 64.8984 59.169C65.5394 59.4915 66.3406 59.6527 67.1418 59.4915C67.6226 59.4915 67.943 59.3302 68.2635 59.0078C68.584 58.8466 68.9045 58.5241 69.0647 58.3629C69.225 58.2017 69.5455 57.8792 69.5455 57.718C69.7057 57.5568 69.7057 57.3955 69.7057 57.3955C69.7057 57.3955 69.5455 57.5568 69.5455 57.718C69.3852 57.8792 69.3852 58.2017 69.225 58.5241C69.0647 58.8466 69.0647 59.169 68.9045 59.6527C68.9045 59.9752 68.7442 60.4588 68.9045 60.9425C69.0647 61.9098 69.3852 62.5547 69.7057 63.1996C70.0262 63.8445 70.3467 64.167 70.3467 64.167C70.3467 64.167 70.5069 64.0057 70.5069 63.8445C70.6672 63.6833 70.8274 63.3608 70.9877 63.0384C71.3081 62.3935 71.6286 61.4261 71.4684 60.62C71.4684 59.4915 70.9877 58.8466 70.6672 58.3629Z" fill="#F5EFDB"/>
<path d="M49.0343 72.3899C48.7138 71.9063 48.0728 71.1001 47.4319 70.7777C47.1114 70.6165 46.7909 70.4552 46.4704 70.294C46.1499 70.1328 45.9897 70.1328 45.6692 70.1328C45.3487 70.1328 45.1884 70.1328 45.0282 70.1328C44.7077 70.1328 44.3872 70.1328 44.3872 70.1328C44.3872 70.1328 44.5475 70.6165 44.7077 71.2614C45.0282 71.9063 45.5089 72.5512 46.1499 73.0348C46.4704 73.1961 46.7909 73.3573 47.1114 73.3573C48.2331 73.6797 49.3548 73.3573 49.515 73.3573C49.3548 73.3573 48.3933 73.6797 47.4319 74.4858C47.1114 74.6471 46.9511 74.9695 46.6306 75.292C46.1499 75.9369 45.8294 76.9042 45.6692 77.5491C45.5089 78.194 45.5089 78.6777 45.5089 78.6777C45.5089 78.6777 45.8294 78.6777 46.3102 78.5165C46.4704 78.5165 46.7909 78.3553 47.1114 78.194C47.4319 78.0328 47.7523 77.8716 47.9126 77.7103C48.2331 77.5491 48.5536 77.2267 48.7138 76.9042C49.1945 76.0981 49.3548 75.292 49.3548 74.6471C49.3548 74.0022 49.3548 73.5185 49.3548 73.5185C49.3548 73.5185 49.3548 72.8736 49.0343 72.3899Z" fill="#F5EFDB"/>
<path d="M54.4826 71.5841C54.4826 71.5841 54.1621 71.1004 53.8416 70.6167C53.3609 70.1331 52.7199 69.4882 52.0789 69.1657C51.7585 69.0045 51.2777 68.8433 50.9572 68.8433C50.6368 68.8433 50.3163 68.8433 49.9958 68.8433C49.3548 68.8433 49.0343 69.0045 49.0343 69.0045C49.0343 69.0045 49.1946 69.4882 49.5151 69.9719C49.8356 70.4555 50.4765 71.1004 51.2777 71.5841C52.0789 71.9065 52.8802 71.9066 53.5211 71.7453C54.0019 71.7453 54.4826 71.5841 54.4826 71.5841C54.4826 71.5841 54.0019 71.7453 53.5211 72.229C53.0404 72.5514 52.3994 73.1963 52.0789 74.0025C51.5982 74.8086 51.5982 75.6147 51.438 76.2596C51.438 76.9045 51.5982 77.3882 51.5982 77.3882C51.5982 77.3882 52.079 77.2269 52.7199 76.9045C53.0404 76.7433 53.3609 76.4208 53.6814 76.0984C54.0019 75.7759 54.3223 75.4535 54.4826 74.9698C54.9633 74.1637 54.9633 73.1963 54.8031 72.5515C54.6428 71.9066 54.4826 71.5841 54.4826 71.5841Z" fill="#F5EFDB"/>
<path d="M59.1299 68.8425C59.1299 68.8425 58.8094 68.52 58.3287 68.0364C57.848 67.5527 57.0467 67.069 56.2455 66.9078C55.7648 66.7466 55.4443 66.7466 55.1238 66.7466C54.8033 66.7466 54.4828 66.9078 54.1623 66.9078C53.5214 67.069 53.2009 67.2302 53.2009 67.2302C53.2009 67.2302 53.5214 67.7139 53.8419 68.1976C54.3226 68.6813 54.9636 69.1649 55.7648 69.4874C56.0853 69.6486 56.566 69.6486 56.8865 69.6486C57.207 69.6486 57.6877 69.4874 57.848 69.4874C58.6492 69.1649 58.9697 69.0037 59.1299 68.8425C59.1299 68.8425 58.6492 69.1649 58.1684 69.6486C58.0082 69.8098 57.6877 70.1323 57.5275 70.4547C57.3672 70.7772 57.0467 71.0996 56.8865 71.5833C56.566 72.3894 56.566 73.3568 56.7263 74.0017C56.8865 74.6466 57.0467 75.1302 57.0467 75.1302C57.0467 75.1302 57.5275 74.969 58.1684 74.4853C58.4889 74.3241 58.8094 74.0016 58.9697 73.6792C59.2901 73.3568 59.4504 72.8731 59.6106 72.5507C59.9311 71.7445 59.7709 70.7772 59.6106 70.1323C59.2901 69.3262 59.1299 68.8425 59.1299 68.8425Z" fill="#F5EFDB"/>
<path d="M33.9718 73.3583C33.8115 72.7134 33.6513 71.9073 33.1705 71.1012C33.0103 70.7787 32.6898 70.6175 32.5296 70.295C32.3693 70.1338 32.0489 69.9726 31.8886 69.8114C31.7284 69.6502 31.4079 69.4889 31.2476 69.4889C30.9271 69.3277 30.6067 69.1665 30.6067 69.1665C30.6067 69.1665 30.4464 69.6501 30.4464 70.295C30.4464 70.9399 30.6067 71.7461 31.0874 72.5522C31.2476 72.8747 31.5681 73.0359 31.7284 73.3583C31.8886 73.5196 32.2091 73.6808 32.3693 73.842C32.5296 74.0032 32.8501 74.0032 33.0103 74.1645C33.491 74.3257 33.6513 74.3256 33.8115 74.3256C33.8115 74.3256 33.491 74.3256 33.0103 74.3256C32.8501 74.3256 32.5296 74.3256 32.2091 74.3256C31.8886 74.3256 31.5681 74.3257 31.4079 74.4869C31.0874 74.4869 30.7669 74.6481 30.4464 74.8093C29.6452 75.293 29.0042 75.7767 28.6837 76.4216C28.3633 76.9053 28.0428 77.3889 28.0428 77.3889C28.0428 77.3889 28.3632 77.5501 28.844 77.5501C29.1645 77.5501 29.3247 77.5501 29.6452 77.5501C29.9657 77.5501 30.2862 77.5502 30.6067 77.3889C30.9271 77.3889 31.2476 77.2277 31.7284 77.0665C32.5296 76.5828 33.0103 75.9379 33.3308 75.293C33.6513 74.6481 33.8115 74.1645 33.8115 74.1645C33.8115 74.1645 34.132 74.0032 33.9718 73.3583Z" fill="#F5EFDB"/>
<path d="M37.9775 71.7451C37.657 71.4226 37.3366 71.2614 37.0161 70.9389C36.6956 70.7777 36.3751 70.6165 36.2149 70.4552C35.7341 70.294 35.2534 70.1328 35.2534 70.1328C35.2534 70.1328 35.2534 70.6165 35.2534 71.2613C35.4137 71.9062 35.5739 72.7124 36.2149 73.3573C36.5354 73.6797 36.8558 73.841 37.1763 74.1634C37.4968 74.3246 37.8173 74.4858 38.1378 74.6471C38.7788 74.8083 39.2595 74.8083 39.2595 74.8083C39.2595 74.8083 38.7788 74.8083 38.1378 74.9695C37.8173 74.9695 37.4968 75.1307 37.1763 75.2919C36.8558 75.4532 36.3751 75.6144 36.0546 75.9368C35.4137 76.4205 34.9329 77.2266 34.6124 77.7103C34.292 78.3552 34.1317 78.8389 34.1317 78.8389C34.1317 78.8389 34.6124 78.8389 35.4137 78.8389C36.2149 78.8389 37.0161 78.5164 37.8173 78.0328C38.6185 77.3879 38.939 76.743 39.0993 76.0981C39.2595 75.4532 39.4197 74.9695 39.4197 74.9695C39.4197 74.9695 39.4197 74.4858 39.2595 73.8409C38.7788 73.0348 38.4583 72.3899 37.9775 71.7451Z" fill="#F5EFDB"/>
<path d="M44.0672 73.5183C43.7467 72.8734 43.4262 72.2286 42.7852 71.5837C42.4647 71.2612 42.1443 71.1 41.8238 70.9388C41.5033 70.7776 41.1828 70.7775 40.8623 70.6163C40.2213 70.4551 39.9009 70.4551 39.9009 70.4551C39.9009 70.4551 39.9008 70.9388 40.0611 71.5837C40.2213 72.2286 40.5418 73.0347 41.1828 73.5183C41.8238 74.002 42.625 74.3245 43.266 74.3245C43.9069 74.3245 44.3877 74.3245 44.3877 74.3245C44.3877 74.3245 43.9069 74.3245 43.266 74.6469C42.625 74.8082 41.984 75.1306 41.343 75.7755C40.7021 76.4204 40.3816 77.2265 40.0611 77.8714C39.9008 78.5163 39.7406 79 39.7406 79C39.7406 79 40.2213 79 41.0226 78.8388C41.343 78.8388 41.8238 78.6776 42.1443 78.3551C42.4648 78.1939 42.9455 77.8714 43.266 77.549C43.9069 76.9041 44.2274 76.098 44.2274 75.4531C44.3877 74.8082 44.3877 74.3245 44.3877 74.3245C44.3877 74.3245 44.3877 74.002 44.0672 73.5183Z" fill="#F5EFDB"/>
<path d="M19.5495 68.5206C19.5495 68.5206 19.7098 68.0369 20.0303 67.392C20.1905 66.7471 20.3508 65.941 20.3508 65.1349C20.3508 64.8124 20.1905 64.49 20.0303 64.1675C19.87 63.6838 19.5496 63.2002 19.2291 62.8777C19.0688 62.7165 19.0688 62.5553 18.9086 62.5553C18.7483 62.5553 18.7483 62.394 18.7483 62.394C18.7483 62.394 18.4279 62.7165 18.1074 63.3614C17.7869 64.0063 17.6266 64.8124 17.6266 65.6185C17.6266 65.941 17.7869 66.2634 17.9471 66.5859C18.5881 67.8757 19.5495 68.5206 19.5495 68.5206C19.3893 68.5206 18.5881 67.8757 17.3061 67.5533C16.9857 67.5533 16.6652 67.392 16.1845 67.392C15.3832 67.392 14.4218 67.7145 13.941 68.0369C13.3001 68.3594 12.9796 68.6818 12.9796 68.6818C12.9796 68.6818 12.9796 68.6818 13.1398 68.843C13.3001 69.0043 13.4603 69.0043 13.6205 69.1655C14.1013 69.4879 14.582 69.8104 15.223 69.9716C15.5435 70.1328 16.0242 70.1329 16.3447 70.1329C17.3061 70.1329 18.1074 69.6492 18.5881 69.3267C19.2291 69.0043 19.5495 68.5206 19.5495 68.5206Z" fill="#F5EFDB"/>
<path d="M24.0365 71.2616C24.0365 71.2616 24.1967 70.778 24.3569 70.1331C24.5172 69.4882 24.5172 68.6821 24.3569 67.8759C24.1967 67.3923 24.0365 67.0698 23.8762 66.7474C23.716 66.5862 23.716 66.4249 23.5557 66.2637C23.3955 66.1025 23.3955 65.9413 23.2352 65.9413C22.9148 65.4576 22.434 65.2964 22.434 65.2964C22.434 65.2964 22.2738 65.78 21.9533 66.4249C21.793 67.0698 21.6328 67.8759 21.7931 68.6821C21.9533 69.1657 22.1136 69.4882 22.2738 69.8106C22.434 70.1331 22.7545 70.4555 22.9148 70.6168C23.5557 70.9392 24.0365 71.2616 24.0365 71.2616C24.0365 71.2616 23.5557 70.9392 22.9148 70.778C22.5943 70.778 22.2738 70.6168 21.7931 70.6168C21.4726 70.6168 20.9918 70.6168 20.5111 70.6168C19.7099 70.778 18.9087 71.2617 18.4279 71.5841C17.9472 72.0678 17.6267 72.3902 17.6267 72.3902C17.6267 72.3902 18.1074 72.7127 18.7484 72.8739C18.9087 72.8739 19.0689 73.0351 19.2291 73.0351C19.3894 73.0351 19.7099 73.1964 19.8701 73.1964C20.3509 73.1964 20.6713 73.1964 21.1521 73.1964C22.1135 73.0351 22.7545 72.5514 23.2352 72.0678C23.8762 71.7453 24.0365 71.2616 24.0365 71.2616Z" fill="#F5EFDB"/>
<path d="M29.004 73.196C29.004 73.196 29.1643 72.7123 29.1643 72.0674C29.1643 71.4225 29.1643 70.6164 28.6836 69.8103C28.5233 69.4878 28.3631 69.1654 28.0426 68.8429C27.8823 68.5205 27.5619 68.3592 27.4016 68.198C26.9209 67.8756 26.6004 67.7144 26.6004 67.7144C26.6004 67.7144 26.4402 68.198 26.2799 68.8429C26.1197 69.4878 26.1197 70.2939 26.4401 71.1001C26.6004 71.4225 26.7606 71.745 27.0811 72.0674C27.4016 72.3899 27.5619 72.5511 27.8823 72.7123C28.3631 73.0348 28.8438 73.196 29.004 73.196C29.004 73.196 28.5233 73.0348 27.8823 73.0348C27.5619 73.0348 27.2414 73.0348 26.7606 73.0348C26.4401 73.0348 25.9594 73.196 25.6389 73.196C24.8377 73.5185 24.1968 74.0021 23.716 74.4858C23.2353 74.9695 23.0751 75.4532 23.0751 75.4532C23.0751 75.4532 23.5558 75.6144 24.1968 75.7756C24.5172 75.9369 24.998 75.9368 25.3185 75.9368C25.7992 75.9368 26.1197 75.9369 26.6004 75.7756C27.4016 75.4532 28.0426 74.8082 28.5233 74.3246C28.6835 73.6797 29.004 73.196 29.004 73.196Z" fill="#F5EFDB"/>
<path d="M8.01219 57.235C8.65316 57.0737 9.13389 56.9125 9.13389 56.9125C9.13389 56.9125 9.45438 56.59 9.93511 56.1064C10.0953 55.9451 10.4159 55.6227 10.5761 55.3002C10.7363 54.9778 11.0568 54.6553 11.0568 54.1717C11.2171 53.8492 11.2171 53.5268 11.2171 53.2043C11.2171 52.5594 11.2171 52.0757 11.0568 51.7533C11.0568 51.5921 10.8966 51.4309 10.8966 51.2696C10.8966 51.1084 10.8966 51.1084 10.8966 51.1084C10.8966 51.1084 10.4158 51.2696 9.93511 51.7533C9.61462 51.9145 9.45438 52.237 9.13389 52.5594C8.8134 52.8819 8.65317 53.2043 8.49292 53.688C8.33268 54.0104 8.33267 54.3329 8.33267 54.6554C8.33267 55.3002 8.49293 55.7839 8.65318 56.2676C8.81342 56.7513 8.97366 56.9125 8.97366 57.0737C8.97366 57.0737 8.81341 56.7513 8.49292 56.4288C8.17244 56.1064 7.85195 55.6227 7.37122 55.3002C7.05074 55.139 6.73024 54.8166 6.40975 54.8166C5.92902 54.6554 5.60853 54.4941 5.1278 54.4941C4.64707 54.4941 4.32659 54.4941 4.0061 54.4941C3.36513 54.4941 2.8844 54.6554 2.8844 54.6554C2.8844 54.6554 2.88441 54.6554 3.04465 54.8166C3.04465 54.9778 3.20489 55.139 3.36513 55.3002C3.68562 55.7839 4.0061 56.2676 4.48683 56.7512C4.80732 56.9125 5.12782 57.2349 5.44831 57.3961C5.92904 57.5574 6.2495 57.7186 6.73023 57.7186C7.21097 57.3962 7.6917 57.3962 8.01219 57.235Z" fill="#F5EFDB"/>
<path d="M10.8963 61.9114C11.5373 61.7502 11.8578 61.4277 11.8578 61.4277C11.8578 61.4277 12.1783 61.1052 12.659 60.6216C12.9795 60.1379 13.4602 59.3318 13.6205 58.5257C13.6205 58.042 13.6205 57.7195 13.6205 57.3971C13.6205 57.0746 13.4602 56.7522 13.4602 56.4298C13.3 55.9461 13.1397 55.4624 13.1397 55.4624C13.1397 55.4624 12.8192 55.7849 12.3385 56.2685C11.8578 56.7522 11.377 57.3971 11.2168 58.3644C11.0566 59.1706 11.2168 59.9767 11.5373 60.6216C11.6975 60.944 11.8578 61.1053 11.8578 61.2665C12.018 61.4277 12.018 61.5889 12.018 61.5889C11.8578 61.4277 10.8963 60.1379 9.13363 59.6543C8.33241 59.493 7.37095 59.493 6.72998 59.6543C6.089 59.8155 5.60828 59.9767 5.60828 59.9767C5.60828 59.9767 5.92876 60.4604 6.40949 60.944C6.72998 61.2665 6.89023 61.4277 7.37096 61.7502C7.69145 61.9114 8.17219 62.2338 8.65292 62.2338C9.45413 62.2338 10.2553 62.0726 10.8963 61.9114Z" fill="#F5EFDB"/>
<path d="M14.5819 65.9409C15.2229 65.6184 15.5434 65.296 15.5434 65.296C15.5434 65.296 15.8639 64.9735 16.1844 64.3286C16.3446 64.0062 16.5049 63.6837 16.6651 63.3613C16.6651 63.2001 16.8253 63.0388 16.8253 62.7164C16.8253 62.5552 16.8253 62.2327 16.8253 62.0715C16.8253 61.5878 16.8254 61.2654 16.6651 60.9429C16.5049 60.6205 16.5049 60.298 16.3446 59.9756C16.1844 59.6531 16.0241 59.4919 16.0241 59.3307C15.8639 59.1694 15.8639 59.1694 15.8639 59.1694C15.8639 59.1694 15.5434 59.4919 15.0627 59.9756C14.7422 60.4592 14.2615 61.2654 14.2615 62.0715C14.2615 62.2327 14.2615 62.5552 14.2615 62.7164C14.2615 62.8776 14.4217 63.0388 14.4217 63.2001C14.5819 63.5225 14.7422 63.845 14.9024 64.1674C15.2229 64.6511 15.5434 64.9735 15.7036 65.1348C15.7036 65.1348 15.2229 64.8123 14.7422 64.4899C14.4217 64.3287 14.1012 64.1674 13.7807 64.0062C13.6205 64.0062 13.4602 63.8449 13.1397 63.8449C12.9795 63.8449 12.8193 63.6838 12.4988 63.6838C11.6975 63.5225 10.7361 63.8449 10.0951 64.0062C9.45413 64.1674 9.13364 64.4899 9.13364 64.4899C9.13364 64.4899 9.29389 64.6511 9.29389 64.8123C9.45413 64.9735 9.61437 65.1347 9.93486 65.4572C10.2553 65.6184 10.5758 65.9409 10.8963 66.1021C11.2168 66.2633 11.6976 66.4245 12.1783 66.4245C12.3385 66.4245 12.659 66.4245 12.8193 66.4245C12.9795 66.4245 13.3 66.4245 13.4602 66.2633C13.941 66.2633 14.2615 66.1021 14.5819 65.9409Z" fill="#F5EFDB"/>
<path d="M1.44173 40.6282C2.08271 41.2731 2.8839 41.5955 3.52488 41.7567C4.16585 41.918 4.6466 41.918 4.6466 41.918C4.6466 41.918 5.12733 41.918 5.7683 41.5955C6.40928 41.4343 7.21049 40.9506 7.69122 40.3057C8.01171 39.9833 8.17194 39.8221 8.33219 39.4996C8.65267 39.0159 8.81292 38.5322 8.81292 38.0486C8.81292 37.8873 8.81293 37.7261 8.97318 37.5649C8.97318 37.4037 8.97318 37.4037 8.97318 37.4037C8.97318 37.4037 8.49245 37.4037 7.85148 37.5649C7.2105 37.7261 6.40928 38.0486 5.7683 38.6935C5.44782 39.0159 5.28756 39.1772 5.12732 39.4996C4.80683 39.9833 4.80685 40.6282 4.6466 40.9506C4.6466 41.4343 4.6466 41.7567 4.6466 41.7567C4.6466 41.7567 4.64659 41.4343 4.48635 40.9506C4.32611 40.467 4.3261 39.9833 4.00562 39.4996C3.84537 39.1772 3.68514 38.8547 3.36465 38.5323C2.72368 37.8874 2.08271 37.4037 1.44173 37.0813C0.800758 36.7588 0.320007 36.7588 0.320007 36.7588V36.92C0.320007 37.0812 0.320007 37.2425 0.320007 37.5649C0.320007 38.0486 0.480256 38.6935 0.800743 39.3384C0.960987 39.9833 1.12124 40.3057 1.44173 40.6282Z" fill="#F5EFDB"/>
<path d="M1.92286 46.2713C2.56383 46.9162 3.5253 47.0774 4.16628 47.0774C4.80725 47.0774 5.28798 47.0774 5.28798 47.0774C5.28798 47.0774 5.76872 46.9162 6.24945 46.5938C6.89042 46.2713 7.53138 45.7877 8.01211 45.1428C8.49284 44.4979 8.65308 43.6917 8.81333 43.2081C8.81333 43.0468 8.81333 42.8856 8.81333 42.8856C8.81333 42.7244 8.81333 42.7244 8.81333 42.5632C8.81333 42.402 8.81333 42.2407 8.81333 42.2407C8.81333 42.2407 8.3326 42.2407 7.69163 42.5632C7.37114 42.7244 7.05064 42.8856 6.73016 43.0468C6.40967 43.2081 6.0892 43.5305 5.76871 43.853C5.44823 44.1754 5.28798 44.4979 5.28798 44.9815C5.12773 45.304 5.12772 45.6264 5.12772 45.9489C5.12772 46.2713 5.12772 46.5938 5.12772 46.755C5.12772 46.9162 5.12772 47.0774 5.12772 47.0774C5.12772 47.0774 5.12774 46.9162 4.96749 46.755C4.96749 46.5938 4.80726 46.2713 4.64701 45.9489C4.48677 45.6264 4.32652 45.304 4.16628 44.9815C4.00603 44.6591 3.68555 44.3366 3.36506 44.0142C3.04457 43.6917 2.72409 43.5305 2.24336 43.3693C1.92287 43.2081 1.44212 43.0468 1.12164 43.0468C0.480664 42.8856 -6.10352e-05 42.8856 -6.10352e-05 42.8856C-6.10352e-05 42.8856 -6.10352e-05 43.0468 -6.10352e-05 43.2081C-6.10352e-05 43.3693 -6.10352e-05 43.5305 -6.10352e-05 43.5305C-6.10352e-05 43.6918 0.160192 43.853 0.160192 44.0142C0.801166 44.8203 1.28188 45.6264 1.92286 46.2713Z" fill="#F5EFDB"/>
<path d="M5.6086 52.3977C6.24958 52.3977 6.7303 52.2365 6.7303 52.2365C6.7303 52.2365 7.21104 52.0753 7.69177 51.5916C8.1725 51.1079 8.81346 50.6243 9.13395 49.8181C9.29419 49.4957 9.45446 49.012 9.45446 48.6895C9.45446 48.3671 9.61469 48.0446 9.61469 47.7222C9.61469 47.561 9.61469 47.3998 9.61469 47.3998C9.61469 47.2385 9.61469 47.2385 9.61469 47.0773C9.61469 46.9161 9.61469 46.7549 9.61469 46.7549C9.61469 46.7549 9.13397 46.9161 8.65324 47.2385C8.33275 47.3998 8.01226 47.561 7.69177 47.8834C7.37128 48.2059 7.21104 48.5283 6.89055 48.8508C6.73031 49.1732 6.57007 49.6569 6.57007 49.9794C6.57007 50.3018 6.57007 50.7855 6.57007 51.1079C6.57007 51.7528 6.73031 52.2365 6.89055 52.2365C6.89055 52.2365 6.73031 51.7528 6.40982 51.1079C6.24958 50.7855 6.08934 50.463 5.76886 50.3018C5.44837 49.9793 5.28812 49.6569 4.80739 49.4957C4.4869 49.3344 4.00617 49.012 3.68569 49.012C3.3652 48.8508 2.88448 48.8508 2.56399 48.8508C1.92302 48.8508 1.44229 48.8508 1.44229 48.8508C1.44229 48.8508 1.44228 49.012 1.60252 49.1732C1.60252 49.3345 1.60253 49.3344 1.76277 49.4957C1.76277 49.6569 1.923 49.8181 1.923 49.9794C2.08324 50.3018 2.2435 50.6242 2.56399 50.9467C2.88448 51.2691 3.20495 51.5916 3.52543 51.7528C4.16641 52.2365 4.96763 52.3977 5.6086 52.3977Z" fill="#F5EFDB"/>
<path d="M5.28773 24.9893C5.44797 25.3117 5.76846 25.6342 6.08895 25.7954C6.56968 26.2791 7.05042 26.4403 7.05042 26.4403C7.05042 26.4403 7.53114 26.6015 8.17212 26.6015C8.4926 26.6015 8.81309 26.6015 9.29382 26.6015C9.6143 26.6015 10.095 26.4403 10.4155 26.2791C10.736 26.1178 11.0565 25.9566 11.2167 25.7954C11.6975 25.473 12.0179 25.1505 12.3384 24.8281C12.4987 24.6668 12.4987 24.5056 12.6589 24.5056C12.6589 24.3444 12.8192 24.3443 12.8192 24.3443C12.8192 24.3443 12.3384 24.1832 11.6975 24.0219C11.377 24.0219 11.0565 23.8607 10.5758 23.8607C10.2553 23.8607 9.77455 23.8607 9.29382 24.0219C8.97333 24.1832 8.65283 24.3444 8.33235 24.5056C7.85162 24.828 7.53113 25.3117 7.21065 25.6342C6.89016 25.9566 6.89016 26.2791 6.89016 26.2791C6.89016 26.2791 7.05042 25.9566 7.05042 25.4729C7.21066 24.9893 7.21065 24.5056 7.21065 23.8607C7.21065 23.5382 7.21066 23.2158 7.05042 22.7321C6.89017 22.2484 6.72993 21.926 6.56968 21.6036C6.40944 21.2811 6.08894 20.9587 5.92869 20.6362C5.44796 20.1525 5.12748 19.8301 5.12748 19.8301C5.12748 19.8301 5.12749 19.8301 4.96725 19.9913C4.96725 20.1525 4.80699 20.3137 4.80699 20.475C4.64675 20.9586 4.48651 21.6035 4.48651 22.2484C4.48651 22.5709 4.48652 23.0546 4.64676 23.377C4.96725 24.1832 5.12749 24.6668 5.28773 24.9893Z" fill="#F5EFDB"/>
<path d="M2.88429 29.1824C3.04454 29.666 3.36503 29.9885 3.68551 30.3109C4.006 30.6334 4.32649 30.7946 4.48673 30.9558C5.1277 31.2783 5.4482 31.4395 5.4482 31.4395C5.4482 31.4395 5.92893 31.4395 6.5699 31.4395C6.89039 31.4395 7.21087 31.4395 7.6916 31.2783C8.01209 31.1171 8.49281 31.1171 8.8133 30.7946C9.13379 30.6334 9.45428 30.3109 9.77477 30.1497C10.0953 29.8273 10.2555 29.666 10.4157 29.3436C10.576 29.0211 10.7362 28.8599 10.7362 28.6987C10.8965 28.5375 10.8965 28.3762 10.8965 28.3762C10.8965 28.3762 10.4157 28.2151 9.77477 28.2151C9.1338 28.2151 8.33257 28.215 7.53135 28.5375C7.21086 28.6987 6.89039 29.0211 6.5699 29.3436C6.24941 29.666 6.08916 29.9885 5.92891 30.1497C5.60842 30.6334 5.4482 31.1171 5.4482 31.2783C5.4482 31.2783 5.60843 30.7946 5.60843 30.1497C5.60843 29.8273 5.60843 29.5048 5.60843 29.0212C5.60843 28.6987 5.44819 28.215 5.28795 27.8926C4.96746 27.0865 4.3265 26.4415 3.84577 25.9579C3.36503 25.4742 2.88429 25.313 2.88429 25.313C2.88429 25.313 2.88428 25.4742 2.72404 25.6355C2.72404 25.7967 2.56381 26.1191 2.56381 26.4416C2.56381 26.764 2.56381 27.2477 2.56381 27.5701C2.56381 28.3762 2.56381 28.6987 2.88429 29.1824Z" fill="#F5EFDB"/>
<path d="M1.12163 33.5341C1.28187 34.0178 1.44212 34.3402 1.60237 34.8238C1.92285 35.1463 2.0831 35.4688 2.40359 35.7912C2.72407 36.1136 3.04457 36.2749 3.36506 36.2749C4.00603 36.5974 4.48676 36.5973 4.48676 36.5973C4.48676 36.5973 4.96749 36.5973 5.60846 36.4361C5.92895 36.4361 6.24945 36.2749 6.56993 36.1137C6.89042 35.9524 7.37115 35.7912 7.69164 35.4688C8.01212 35.1463 8.33261 34.9851 8.49285 34.6627C8.6531 34.3402 8.81335 34.0178 8.97359 33.8565C9.13383 33.3729 9.29407 32.8892 9.29407 32.8892C9.29407 32.8892 8.81335 32.8892 8.17237 32.8892C7.5314 32.8892 6.73016 33.0504 5.92894 33.6953C5.60846 34.0178 5.28797 34.179 5.12772 34.5014C4.96748 34.8239 4.80726 35.1463 4.64701 35.4688C4.48677 36.1137 4.32651 36.5973 4.32651 36.5973C4.32651 36.5973 4.32651 36.1137 4.32651 35.4688C4.32651 35.1463 4.16628 34.8239 4.16628 34.3402C4.00603 34.0178 3.84578 33.5341 3.68554 33.2116C3.20481 32.4055 2.56382 31.9218 1.92285 31.5994C1.28187 31.2769 0.961401 31.1157 0.961401 31.1157C0.961401 31.1157 0.801147 31.5994 0.801147 32.4055C1.12164 32.7279 1.12163 33.2116 1.12163 33.5341Z" fill="#F5EFDB"/>
<path d="M16.024 13.5437C16.024 13.5437 16.3445 13.8661 16.9855 14.1886C17.6265 14.511 18.2675 14.8335 19.2289 14.9947C19.5494 14.9947 19.8699 14.9947 20.1904 14.9947C20.8314 14.8335 21.3121 14.6723 21.6326 14.511C21.9531 14.3498 22.2736 14.1886 22.2736 14.1886C22.2736 14.1886 21.9531 13.8661 21.4723 13.3825C20.9916 12.8988 20.1904 12.5763 19.3892 12.4151C19.0687 12.4151 18.7482 12.4151 18.4277 12.4151C17.7867 12.5763 17.306 12.7375 16.9855 13.06C16.1843 13.3824 16.024 13.5437 16.024 13.5437C16.024 13.5437 16.3445 13.2213 16.5048 12.8988C16.8253 12.5764 17.1458 12.0927 17.306 11.609C17.4662 11.2865 17.6265 10.9641 17.6265 10.6416C17.7867 9.83551 17.6265 8.86816 17.4663 8.22327C17.306 7.57837 16.9855 7.09473 16.9855 7.09473C16.9855 7.09473 16.665 7.25593 16.3445 7.57838C16.024 7.90083 15.5433 8.38449 15.2228 9.02939C15.0626 9.35183 14.9023 9.6743 14.9023 10.158C14.7421 11.1253 14.9023 11.9314 15.2228 12.5763C15.7036 13.2212 16.024 13.5437 16.024 13.5437Z" fill="#F5EFDB"/>
<path d="M12.3385 17.4114C12.3385 17.4114 12.8193 17.7338 13.3 17.895C13.941 18.2175 14.7422 18.3787 15.5434 18.3787C15.7036 18.3787 16.0241 18.3787 16.1844 18.2175C16.3446 18.2175 16.5049 18.0562 16.6651 18.0562C16.9856 17.895 17.3061 17.7338 17.6266 17.5726C17.9471 17.4114 18.1073 17.2501 18.2676 17.2501C18.4278 17.0889 18.4278 17.0889 18.4278 17.0889C18.4278 17.0889 18.1073 16.7665 17.4663 16.444C17.1459 16.2828 16.8254 16.1216 16.5049 15.9604C16.3446 15.9604 16.1844 15.7991 15.8639 15.7991C15.7037 15.7991 15.3832 15.7991 15.2229 15.7991C14.7422 15.7991 14.4217 15.9604 14.1012 16.1216C13.7807 16.2828 13.4602 16.444 13.1398 16.6052C12.659 16.9277 12.3385 17.2501 12.3385 17.4114C12.3385 17.4114 12.659 16.9277 12.9795 16.444C13.1398 16.1216 13.3 15.7991 13.4603 15.4767C13.6205 15.1542 13.6205 14.6706 13.6205 14.3481C13.6205 14.1869 13.6205 13.8645 13.6205 13.7032C13.6205 13.542 13.6205 13.2195 13.4603 13.0583C13.3 12.7358 13.3 12.2522 13.1398 11.9298C12.8193 11.2849 12.4988 10.9624 12.4988 10.9624C12.4988 10.9624 12.3386 11.1236 12.1783 11.2849C12.0181 11.4461 11.8578 11.7685 11.6976 11.9298C11.5373 12.2522 11.3771 12.5746 11.2168 13.0583C11.2168 13.2195 11.0566 13.542 11.0566 13.7032C11.0566 13.8645 11.0566 14.1869 11.0566 14.3481C11.0566 15.3155 11.3771 16.1216 11.6976 16.6052C12.0181 17.0889 12.3385 17.4114 12.3385 17.4114Z" fill="#F5EFDB"/>
<path d="M8.49289 20.9598C8.97362 21.4434 9.29411 21.7659 9.29411 21.7659C9.29411 21.7659 9.77483 21.9271 10.4158 22.0883C11.0568 22.2495 11.858 22.4108 12.6592 22.2495C13.4605 22.0883 14.1014 21.6046 14.5822 21.2822C14.7424 21.121 15.0629 20.9598 15.0629 20.7985C15.2231 20.6373 15.2231 20.6373 15.2231 20.6373C15.2231 20.6373 14.7424 20.3149 14.2617 20.1536C13.6207 19.8312 12.8195 19.6699 12.0182 19.8312C11.5375 19.8312 11.217 19.9924 10.8965 20.3148C10.5761 20.476 10.2556 20.7985 10.0953 20.9598C9.93508 21.121 9.61459 21.4434 9.61459 21.6047C9.45435 21.7659 9.45436 21.9271 9.45436 21.9271C9.45436 21.9271 9.61459 21.7659 9.61459 21.6047C9.77483 21.4434 9.77483 21.121 9.93507 20.7985C10.0953 20.4761 10.0953 20.1536 10.2556 19.8312C10.2556 19.5087 10.4158 19.0251 10.2556 18.5414C10.0953 17.574 9.77485 16.9291 9.45436 16.2842C9.13387 15.6393 8.81337 15.3169 8.81337 15.3169C8.81337 15.3169 8.65314 15.4781 8.65314 15.6393C8.4929 15.8005 8.33265 16.123 8.17241 16.4454C7.85192 17.0903 7.53143 18.0577 7.69167 18.8638C7.69167 19.6699 8.01216 20.4761 8.49289 20.9598Z" fill="#F5EFDB"/>
<path d="M30.1259 6.77159C30.4464 7.25527 31.0873 8.06138 31.7283 8.38383C32.0488 8.54505 32.3693 8.70631 32.6898 8.86753C33.0103 9.02875 33.1705 9.02871 33.491 9.02871C33.8115 9.02871 33.9717 9.02871 34.132 9.02871C34.4525 9.02871 34.7729 9.02871 34.7729 9.02871C34.7729 9.02871 34.6127 8.54507 34.4525 7.90018C34.132 7.25528 33.6512 6.61038 33.0103 6.12671C32.6898 5.96549 32.3693 5.80424 32.0488 5.80424C30.9271 5.4818 29.8054 5.80424 29.6451 5.80424C29.8054 5.80424 30.7669 5.48183 31.7283 4.67571C32.0488 4.51448 32.209 4.19204 32.5295 3.86959C33.0103 3.2247 33.3308 2.25737 33.491 1.61247C33.6513 0.967577 33.6512 0.483887 33.6512 0.483887C33.6512 0.483887 33.3308 0.483897 32.85 0.64512C32.6898 0.64512 32.3693 0.806314 32.0488 0.967538C31.7283 1.12876 31.4078 1.29001 31.2476 1.45124C30.9271 1.61246 30.6066 1.93491 30.4464 2.25736C29.9656 3.06347 29.8054 3.86958 29.8054 4.51447C29.8054 5.15937 29.8054 5.64306 29.8054 5.64306C29.8054 5.64306 29.6451 6.28792 30.1259 6.77159Z" fill="#F5EFDB"/>
<path d="M24.6773 7.73913C24.6773 7.73913 24.9977 8.22282 25.3182 8.70649C25.799 9.19016 26.4399 9.83504 27.2412 9.99626C27.5616 10.1575 28.0424 10.3187 28.3629 10.3187C28.6833 10.3187 29.0038 10.3187 29.3243 10.3187C29.9653 10.3187 30.2858 10.1575 30.2858 10.1575C30.2858 10.1575 30.1256 9.67381 29.8051 9.19014C29.4846 8.70647 28.8436 8.06157 28.0424 7.5779C27.2412 7.25545 26.4399 7.25544 25.799 7.41667C25.158 7.41667 24.6773 7.73913 24.6773 7.73913C24.6773 7.73913 25.158 7.57792 25.6387 7.09425C26.1194 6.7718 26.7604 6.12689 27.0809 5.32077C27.5617 4.51465 27.5617 3.70854 27.7219 3.06365C27.7219 2.41875 27.5616 1.93506 27.5616 1.93506C27.5616 1.93506 27.0809 2.09631 26.4399 2.41876C26.1194 2.57998 25.799 2.90243 25.4785 3.22488C25.158 3.54733 24.8375 3.86975 24.6773 4.35342C24.1965 5.15954 24.1965 6.12688 24.3568 6.77178C24.517 7.25545 24.6773 7.73913 24.6773 7.73913Z" fill="#F5EFDB"/>
<path d="M20.0301 10.318C20.0301 10.318 20.3506 10.6405 20.8313 11.1242C21.3121 11.6078 22.1133 12.0915 22.9145 12.2527C23.3952 12.4139 23.7157 12.4139 24.0362 12.4139C24.3567 12.4139 24.6772 12.2527 24.9977 12.2527C25.6387 12.0915 25.9591 11.9303 25.9591 11.9303C25.9591 11.9303 25.6387 11.4466 25.3182 10.9629C24.8374 10.4793 24.1965 9.9956 23.3952 9.67315C23.0748 9.51192 22.594 9.51191 22.2735 9.51191C21.953 9.51191 21.4723 9.67315 21.3121 9.67315C20.5108 9.9956 20.1903 10.318 20.0301 10.318C20.0301 10.318 20.5108 9.99559 20.9916 9.51191C21.1518 9.35069 21.4723 9.02824 21.6325 8.70579C21.7928 8.38334 22.1133 8.06087 22.1133 7.57719C22.4338 6.77107 22.4338 5.80372 22.2735 5.15882C22.1133 4.51392 21.953 4.03027 21.953 4.03027C21.953 4.03027 21.4723 4.19149 20.8313 4.67516C20.5108 4.83639 20.1903 5.15884 20.0301 5.48129C19.7096 5.80374 19.5494 6.28738 19.3891 6.60983C19.0686 7.41596 19.2289 8.38331 19.3891 9.02821C19.8699 9.83433 20.0301 10.318 20.0301 10.318Z" fill="#F5EFDB"/>
<path d="M45.1885 5.96523C45.3487 6.61012 45.5089 7.41622 45.9897 8.22233C46.1499 8.54477 46.4704 8.706 46.6307 9.02844C46.7909 9.18966 47.1114 9.35091 47.2716 9.51214C47.4319 9.67336 47.7524 9.83455 47.9126 9.83455C48.2331 9.99577 48.5536 10.157 48.5536 10.157C48.5536 10.157 48.7138 9.67333 48.7138 9.02844C48.7138 8.38355 48.5536 7.57745 48.0728 6.77134C47.9126 6.44889 47.5921 6.28767 47.4319 5.96523C47.2716 5.804 46.9511 5.6428 46.7909 5.48158C46.6306 5.32036 46.3102 5.32034 46.1499 5.15912C45.6692 4.99789 45.5089 4.99788 45.3487 4.99788C45.3487 4.99788 45.6692 4.99788 46.1499 4.99788C46.3102 4.99788 46.6307 4.99788 46.9511 4.99788C47.2716 4.99788 47.4319 4.99792 47.7524 4.8367C48.0728 4.67548 48.3933 4.67546 48.7138 4.51424C49.515 4.03057 50.156 3.5469 50.4765 2.90201C50.797 2.41835 51.1175 1.93467 51.1175 1.93467C51.1175 1.93467 50.797 1.77344 50.3163 1.77344C49.9958 1.77344 49.8355 1.77344 49.515 1.77344C49.1946 1.77344 48.8741 1.77345 48.5536 1.93467C48.2331 1.93467 47.9126 2.09591 47.4319 2.25713C46.6307 2.7408 46.1499 3.3857 45.8294 4.03059C45.509 4.67548 45.3487 5.15912 45.3487 5.15912C45.3487 5.15912 45.0282 5.32034 45.1885 5.96523Z" fill="#F5EFDB"/>
<path d="M41.1826 7.57773C41.5031 7.90017 41.8235 8.0614 42.144 8.38384C42.4645 8.54507 42.785 8.70632 43.1055 8.86755C43.5862 9.02877 44.067 9.18996 44.067 9.18996C44.067 9.18996 44.067 8.70632 44.067 8.06143C43.9067 7.41653 43.7465 6.61038 43.1055 5.96549C42.785 5.64304 42.4645 5.48182 42.144 5.15937C41.8235 4.99814 41.5031 4.83694 41.1826 4.67572C40.5416 4.51449 40.0609 4.51448 40.0609 4.51448C40.0609 4.51448 40.5416 4.51447 41.1826 4.35325C41.5031 4.35325 41.8235 4.19205 42.144 4.03083C42.4645 3.86961 42.9452 3.70834 43.2657 3.3859C43.9067 2.90222 44.3875 2.09614 44.7079 1.61247C45.0284 0.967578 45.1887 0.483887 45.1887 0.483887C45.1887 0.483887 44.7079 0.483887 43.9067 0.483887C43.1055 0.483887 42.3043 0.806334 41.5031 1.29001C40.7019 1.9349 40.3814 2.57982 40.2211 3.22471C40.0609 3.86961 39.9006 4.35325 39.9006 4.35325C39.9006 4.35325 39.9006 4.83694 40.0609 5.48184C40.2211 6.12673 40.5416 6.93283 41.1826 7.57773Z" fill="#F5EFDB"/>
<path d="M37.8172 5.48164C37.1762 4.99796 36.375 4.67551 35.734 4.67551C35.0931 4.67551 34.6123 4.67551 34.6123 4.67551C34.6123 4.67551 35.0931 4.67549 35.734 4.35304C36.375 4.19182 37.016 3.8694 37.6569 3.2245C38.2979 2.5796 38.6184 1.77344 38.9389 1.12855C39.0991 0.483645 39.2594 0 39.2594 0C39.2594 0 38.7786 -3.9364e-05 37.9774 0.161186C37.6569 0.161186 37.1762 0.32244 36.8557 0.64489C36.5352 0.806115 36.0545 1.12856 35.734 1.45101C35.0931 2.09591 34.7726 2.90202 34.7726 3.54692C34.6123 4.19182 34.6123 4.67551 34.6123 4.67551C34.6123 4.67551 34.7726 5.15916 34.9328 5.80406C35.2533 6.44896 35.5738 7.09388 36.2148 7.73878C36.5353 8.06123 36.8557 8.22244 37.1762 8.38367C37.4967 8.54489 37.8172 8.54491 38.1377 8.70614C38.7787 8.86736 39.0992 8.86737 39.0992 8.86737C39.0992 8.86737 39.0991 8.38368 38.9389 7.73878C38.9389 6.93265 38.4582 6.12654 37.8172 5.48164Z" fill="#F5EFDB"/>
<path d="M59.6104 10.6406C59.6104 10.6406 59.4502 11.1242 59.1297 11.7691C58.9695 12.414 58.8092 13.2201 58.8092 14.0263C58.8092 14.3487 58.9695 14.6712 59.1297 14.9936C59.29 15.4773 59.6104 15.9609 59.9309 16.2834C60.0912 16.4446 60.0912 16.6059 60.2514 16.6059C60.4116 16.7671 60.4116 16.7671 60.4116 16.7671C60.4116 16.7671 60.7321 16.4446 61.0526 15.7997C61.3731 15.1548 61.5334 14.3487 61.5334 13.5426C61.5334 13.2202 61.3731 12.8977 61.2128 12.5753C60.5719 11.4467 59.6104 10.6406 59.6104 10.6406C59.7707 10.6406 60.5719 11.2855 61.8538 11.6079C62.1743 11.6079 62.4948 11.7691 62.9755 11.7691C63.7767 11.7691 64.7382 11.4467 65.2189 11.1243C65.8599 10.8018 66.1804 10.4794 66.1804 10.4794C66.1804 10.4794 66.1804 10.4794 66.0201 10.3181C65.8599 10.1569 65.6997 10.1569 65.5394 9.99567C65.0587 9.67322 64.578 9.35078 63.937 9.18955C63.6165 9.02833 63.1358 9.02832 62.8153 9.02832C61.8538 9.02832 61.0526 9.51199 60.5719 9.83444C59.9309 10.3181 59.6104 10.6406 59.6104 10.6406Z" fill="#F5EFDB"/>
<path d="M55.1237 7.90005C55.1237 7.90005 54.9634 8.3837 54.8032 9.0286C54.6429 9.6735 54.643 10.4797 54.9634 11.2858C55.1237 11.7695 55.2839 12.0919 55.4442 12.4143C55.6044 12.5756 55.6044 12.7368 55.7647 12.898C55.9249 13.0593 55.9249 13.2205 56.0851 13.2205C56.4056 13.7041 56.8864 13.8653 56.8864 13.8653C56.8864 13.8653 57.0466 13.3817 57.3671 12.7368C57.5273 12.0919 57.6876 11.2858 57.5274 10.4797C57.3671 9.99599 57.2069 9.67352 57.0466 9.35107C56.8864 9.02862 56.5659 8.70617 56.4056 8.54494C55.6044 8.22249 55.1237 8.06128 55.1237 7.90005C55.1237 7.90005 55.6044 8.22248 56.2454 8.38371C56.5659 8.38371 56.8864 8.54494 57.3671 8.54494C57.6876 8.54494 58.1683 8.54494 58.6491 8.54494C59.4503 8.38372 60.2515 7.90003 60.7322 7.57758C61.213 7.09391 61.5335 6.77146 61.5335 6.77146C61.5335 6.77146 61.0527 6.44903 60.4117 6.2878C60.2515 6.2878 60.0913 6.12657 59.931 6.12657C59.7708 6.12657 59.4503 5.96533 59.29 5.96533C58.8093 5.96533 58.4888 5.96533 58.0081 5.96533C57.0466 6.12656 56.4057 6.61025 55.9249 7.09393C55.2839 7.5776 55.1237 7.90005 55.1237 7.90005Z" fill="#F5EFDB"/>
<path d="M50.1563 5.96538C50.1563 5.96538 49.9961 6.44908 49.9961 7.09397C49.9961 7.73887 49.9961 8.54497 50.4768 9.35109C50.6371 9.67354 50.7973 9.996 51.1178 10.3184C51.2781 10.6409 51.5985 10.8021 51.7588 10.9633C52.2395 11.2858 52.56 11.447 52.56 11.447C52.56 11.447 52.7202 10.9633 52.8805 10.3184C53.0407 9.67355 53.0407 8.86744 52.7202 8.06132C52.56 7.73888 52.3997 7.41642 52.0793 7.09397C51.7588 6.77152 51.5985 6.61031 51.278 6.44909C50.7973 6.12664 50.3166 5.96538 50.1563 5.96538C50.1563 5.96538 50.6371 6.12662 51.278 6.12662C51.5985 6.12662 51.919 6.12662 52.3997 6.12662C52.7202 6.12662 53.201 5.96538 53.5215 5.96538C54.3227 5.64294 54.9636 5.15929 55.4444 4.67561C55.9251 4.19194 56.0853 3.70826 56.0853 3.70826C56.0853 3.70826 55.6046 3.54702 54.9636 3.38579C54.6431 3.22457 54.1624 3.22461 53.8419 3.22461C53.3612 3.22461 53.0407 3.22457 52.56 3.38579C51.7588 3.70824 51.1178 4.35318 50.6371 4.83685C50.3166 5.48174 50.1563 5.96538 50.1563 5.96538Z" fill="#F5EFDB"/>
<path d="M71.1483 21.9265C70.5073 22.0877 70.0266 22.249 70.0266 22.249C70.0266 22.249 69.7061 22.5714 69.2254 23.0551C69.0651 23.2163 68.7446 23.5388 68.5844 23.8612C68.4241 24.1837 68.1036 24.5062 68.1036 24.9898C67.9434 25.3123 67.9434 25.6347 67.9434 25.9571C67.9434 26.602 67.9434 27.0857 68.1036 27.4082C68.1036 27.5694 68.2639 27.7306 68.2639 27.8918C68.2639 28.0531 68.2639 28.0531 68.2639 28.0531C68.2639 28.0531 68.7446 27.8919 69.2254 27.4082C69.5458 27.247 69.7061 26.9245 70.0266 26.6021C70.1868 26.2796 70.5073 25.9572 70.6676 25.4735C70.8278 25.151 70.8278 24.8286 70.8278 24.5061C70.8278 23.8612 70.6676 23.3776 70.5073 22.8939C70.3471 22.4102 70.1868 22.249 70.1868 22.0878C70.1868 22.0878 70.3471 22.4102 70.6676 22.7326C70.9881 23.0551 71.3085 23.5388 71.7893 23.8612C72.1098 24.0225 72.4303 24.3449 72.7507 24.3449C73.2315 24.5061 73.5519 24.6674 74.0327 24.6674C74.5134 24.6674 74.8339 24.6674 75.1544 24.6674C75.7954 24.6674 76.2761 24.5061 76.2761 24.5061C76.2761 24.5061 76.2761 24.5061 76.1158 24.3449C76.1158 24.1837 75.9556 24.0225 75.7954 23.8612C75.4749 23.3776 75.1544 22.8939 74.6737 22.4102C74.3532 22.249 74.0327 21.9266 73.7122 21.7653C73.2315 21.6041 72.911 21.4429 72.4302 21.4429C71.9495 21.7653 71.4688 21.7653 71.1483 21.9265Z" fill="#F5EFDB"/>
<path d="M68.264 17.4126C67.623 17.5738 67.3025 17.8962 67.3025 17.8962C67.3025 17.8962 66.982 18.2187 66.5013 18.7023C66.1808 19.186 65.7001 19.9922 65.5399 20.7983C65.5399 21.282 65.5399 21.6044 65.5399 21.9268C65.5399 22.2493 65.7001 22.5718 65.7001 22.8942C65.8603 23.3779 66.0206 23.8616 66.0206 23.8616C66.0206 23.8616 66.3411 23.5391 66.8218 23.0554C67.3025 22.5718 67.7833 21.9269 67.9435 20.9595C68.1038 20.1534 67.9435 19.3472 67.623 18.7023C67.4628 18.3799 67.3025 18.2187 67.3025 18.0575C67.1423 17.8962 67.1423 17.735 67.1423 17.735C67.3025 17.8963 68.264 19.186 70.0267 19.6697C70.8279 19.8309 71.7893 19.8309 72.4303 19.6697C73.0713 19.5085 73.5521 19.3473 73.5521 19.3473C73.5521 19.3473 73.2316 18.8636 72.7508 18.3799C72.4303 18.0575 72.2701 17.8963 71.7894 17.5738C71.4689 17.4126 70.9881 17.0901 70.5074 17.0901C69.7062 16.9289 68.7447 17.0901 68.264 17.4126Z" fill="#F5EFDB"/>
<path d="M64.578 13.3821C63.937 13.7045 63.6165 14.027 63.6165 14.027C63.6165 14.027 63.296 14.3494 62.9756 14.9943C62.8153 15.3168 62.6551 15.6392 62.4948 15.9617C62.4948 16.1229 62.3346 16.2841 62.3346 16.6066C62.3346 16.7678 62.3346 17.0902 62.3346 17.2514C62.3346 17.7351 62.3346 18.0576 62.4948 18.38C62.6551 18.7025 62.6551 19.0249 62.8153 19.3474C62.9755 19.6698 63.1358 19.831 63.1358 19.9923C63.2961 20.1535 63.296 20.1535 63.296 20.1535C63.296 20.1535 63.6165 19.8311 64.0973 19.3474C64.4177 18.8637 64.8985 18.0576 64.8985 17.2514C64.8985 17.0902 64.8985 16.7678 64.8985 16.6066C64.8985 16.4453 64.7382 16.2841 64.7382 16.1229C64.578 15.8005 64.4178 15.478 64.2575 15.1556C63.937 14.6719 63.6165 14.3494 63.4563 14.1882C63.4563 14.1882 63.937 14.5106 64.4177 14.8331C64.7382 14.9943 65.0587 15.1556 65.3792 15.3168C65.5395 15.3168 65.6997 15.478 66.0202 15.478C66.1804 15.478 66.3407 15.6392 66.6612 15.6392C67.4624 15.8004 68.4238 15.478 69.0648 15.3168C69.7058 15.1556 70.0263 14.8331 70.0263 14.8331C70.0263 14.8331 69.866 14.6719 69.866 14.5107C69.7058 14.3495 69.5455 14.1882 69.225 13.8657C68.9046 13.7045 68.5841 13.3821 68.2636 13.2209C67.9431 13.0596 67.4624 12.8984 66.9816 12.8984C66.8214 12.8984 66.5009 12.8984 66.3407 12.8984C66.1804 12.8984 65.8599 12.8984 65.6997 13.0596C65.219 13.0596 64.8985 13.2209 64.578 13.3821Z" fill="#F5EFDB"/>
<path d="M77.0769 32.8906C76.4359 32.2457 75.4745 32.0845 74.8335 32.0845C74.1925 32.0845 73.7118 32.0845 73.7118 32.0845C73.7118 32.0845 73.2311 32.2457 72.7504 32.5681C72.1094 32.8906 71.4684 33.3742 70.9877 34.0191C70.5069 34.664 70.3467 35.4701 70.1865 35.9538C70.1865 36.115 70.1865 36.2763 70.1865 36.2763C70.1865 36.4375 70.1865 36.4375 70.1865 36.5987C70.1865 36.7599 70.1865 36.9212 70.1865 36.9212C70.1865 36.9212 70.6672 36.9211 71.3082 36.5987C71.6286 36.4375 71.9491 36.2763 72.2696 36.1151C72.5901 35.9538 72.9106 35.6314 73.2311 35.3089C73.5516 34.9865 73.7118 34.664 73.7118 34.1804C73.872 33.8579 73.8721 33.5355 73.8721 33.213C73.8721 32.8906 73.8721 32.5681 73.8721 32.4069C73.8721 32.2457 73.8721 32.0845 73.8721 32.0845C73.8721 32.0845 73.872 32.2457 74.0323 32.4069C74.0323 32.5681 74.1925 32.8906 74.3528 33.213C74.513 33.5355 74.6733 33.8579 74.8335 34.1804C74.9937 34.5028 75.3142 34.8253 75.6347 35.1477C75.9552 35.4701 76.2757 35.6314 76.7564 35.7926C77.0769 35.9538 77.5576 36.1151 77.8781 36.1151C78.5191 36.2763 78.9998 36.2763 78.9998 36.2763C78.9998 36.2763 78.9998 36.115 78.9998 35.9538C78.9998 35.7926 78.9998 35.6314 78.9998 35.6314C78.9998 35.4701 78.8396 35.3089 78.8396 35.1477C78.1986 34.3416 77.8781 33.5355 77.0769 32.8906Z" fill="#F5EFDB"/>
<path d="M73.3913 26.7622C72.7504 26.7622 72.2696 26.9234 72.2696 26.9234C72.2696 26.9234 71.7889 27.0847 71.3082 27.5683C70.8274 27.8908 70.1865 28.5357 69.866 29.3418C69.7057 29.6643 69.5455 30.1479 69.5455 30.4704C69.5455 30.7928 69.3853 31.1153 69.3853 31.4377C69.3853 31.599 69.3853 31.7602 69.3853 31.7602C69.3853 31.9214 69.3853 31.9214 69.3853 32.0826C69.3853 32.2439 69.3853 32.4051 69.3853 32.4051C69.3853 32.4051 69.866 32.2439 70.3467 31.9214C70.6672 31.7602 70.9877 31.599 71.3082 31.2765C71.6287 30.9541 71.7889 30.6316 72.1094 30.3092C72.2696 29.9867 72.4299 29.503 72.4299 29.1806C72.4299 28.8581 72.4299 28.3745 72.4299 28.052C72.4299 27.4071 72.2696 26.9234 72.1094 26.9234C72.1094 26.9234 72.2696 27.4071 72.5901 28.052C72.7504 28.3745 72.9106 28.6969 73.2311 28.8582C73.5516 29.1806 73.7118 29.503 74.1926 29.6643C74.5131 29.8255 74.9938 30.1479 75.3143 30.1479C75.6348 30.3092 76.1155 30.3092 76.436 30.3092C77.0769 30.3092 77.5577 30.3092 77.5577 30.3092C77.5577 30.3092 77.5577 30.1479 77.3974 29.9867C77.3974 29.8255 77.3974 29.8255 77.2372 29.6643C77.2372 29.503 77.077 29.3418 77.077 29.1806C76.9167 28.8581 76.7565 28.5357 76.436 28.2133C76.1155 27.8908 75.795 27.5684 75.4745 27.4071C74.9938 26.9235 74.1926 26.7622 73.3913 26.7622Z" fill="#F5EFDB"/>
<path d="M40.3194 38.6944C42.3978 38.8138 44.0308 39.5448 45.2185 40.8873C46.4061 42.2299 46.9999 43.8112 46.9999 45.6312C46.9999 47.2721 46.6288 48.7341 45.8865 50.017C45.1739 51.2701 44.1644 52.2546 42.858 52.9707C41.5516 53.6569 40.0521 54 38.3597 54C35.539 54 33.1043 52.8812 31.0556 50.6435L31.0111 50.554C31.0111 50.4347 31.0705 50.3452 31.1892 50.2855C31.3377 50.196 31.4416 50.196 31.501 50.2855C32.1839 50.9717 33.0004 51.4938 33.9505 51.8519C34.9303 52.2099 35.8805 52.3889 36.8009 52.3889C38.8199 52.3889 40.2897 51.8071 41.2101 50.6435C42.1602 49.4501 42.6353 47.8987 42.6353 45.9892C42.6353 41.4841 40.2006 39.2315 35.3312 39.2315C35.2124 39.2315 35.1382 39.142 35.1085 38.963C35.1085 38.7541 35.1827 38.6497 35.3312 38.6497C37.7065 38.6497 39.3692 38.1276 40.3194 37.0833C41.2992 36.0391 41.7891 34.5622 41.7891 32.6528C41.7891 30.7731 41.3882 29.3858 40.5866 28.4907C39.7849 27.5957 38.6715 27.1481 37.2463 27.1481C36.0883 27.1481 34.9749 27.4465 33.906 28.0432C32.8371 28.6101 32.0503 29.4604 31.5455 30.5941C31.5455 30.624 31.501 30.6389 31.4119 30.6389C31.3228 30.6389 31.2189 30.6091 31.1001 30.5494C31.0111 30.4897 30.9814 30.445 31.0111 30.4151C31.6643 28.7443 32.7035 27.4316 34.1287 26.4769C35.5539 25.4923 37.1869 25 39.0278 25C41.0765 25 42.7392 25.5818 44.0159 26.7454C45.3224 27.909 45.9756 29.4007 45.9756 31.2207C45.9756 32.8318 45.456 34.3236 44.4168 35.696C43.4073 37.0684 42.0415 38.0679 40.3194 38.6944Z" fill="#AAAAAA"/>
</svg>
